<?xml version="1.0" encoding="utf-8"?>
<!-- Generator: Adobe Illustrator 18.0.0, SVG Export Plug-In . SVG Version: 6.00 Build 0)  -->
<!DOCTYPE svg PUBLIC "-//W3C//DTD SVG 1.1//EN" "http://www.w3.org/Graphics/SVG/1.1/DTD/svg11.dtd">
<svg version="1.1" xmlns="http://www.w3.org/2000/svg" xmlns:xlink="http://www.w3.org/1999/xlink" x="0px" y="0px"
	 viewBox="0 0 432 432" enable-background="new 0 0 432 432" xml:space="preserve">
<g id="arm_x5F_up" display="none">
	<g display="inline">
		<g>
			<path fill="#A8A439" d="M304.3,226.7c1.3-3.6,12.2-5.4,13.7-6.5c8.6-6.8,21.1-11.3,21.6-10.9c0.3,0.2-2.4,7.3-6.2,12.3
				c-3,3.9-7.2,5.9-7.2,5.9s4.8-0.1,6.5,4.7c1.8,4.8-2,8.8-2,8.8s7.2,3.4,5.5,8.2s-17,8-17,8S301.4,234.6,304.3,226.7z"/>
			<path d="M318.6,258.9l-0.6-0.8c-1.9-2.4-18.4-23.5-15.2-32c1.1-2.9,5.6-4.5,11-6.1c1.3-0.4,2.9-0.9,3.2-1.1
				c8.3-6.6,20.5-11.3,22.5-11.3c0.4,0,0.8,0.1,1.2,0.4c0.8,0.7,1.2,1.3-1.1,6.3c-0.8,1.8-2.5,5.3-4.8,8.2c-1.4,1.8-3.1,3.3-4.5,4.3
				c1.5,0.8,3.1,2.2,4,4.7c1.4,3.7,0,7-1.1,8.9c2.9,1.9,6.1,5.2,4.7,9.2c-1.9,5.3-15.5,8.5-18.2,9.1L318.6,258.9z M337.2,211.5
				c-3.9,1.4-12,5-18.2,9.9c-0.7,0.5-1.9,0.9-4.3,1.6c-2.7,0.8-8.3,2.5-8.9,4.2c-1.8,5,7.4,19.6,14.1,28.1
				c5.9-1.4,13.9-4.2,14.8-6.8c1.2-3.3-4.7-6.1-4.7-6.2l-2-0.9l1.5-1.6c0.1-0.1,3-3.4,1.7-7.2c-1.3-3.5-4.6-3.7-5-3.7h-7.2l6.4-3
				c0,0,4-1.9,6.7-5.4C334.4,217.6,336.2,213.9,337.2,211.5z"/>
		</g>
		<g>
			<path fill="#D8CA66" d="M260.2,239.1l6.7,29.1c0,0,9.1,15.8,48.6,15.6c0,0-6-24.6-2.1-62.5"/>
			<path d="M314.9,285.8c-39.7,0-49.4-16-49.8-16.6l-0.2-0.3l-0.1-0.3l-7.1-30.8l57.8-19.4l-0.3,3.1c-3.8,37.2,2,61.6,2,61.9
				l0.6,2.5L314.9,285.8z M268.7,267.3c1.2,1.7,11.1,14,44.3,14.4c-1.3-6.9-4.6-27.8-1.9-57.6l-48.5,16.3L268.7,267.3z"/>
		</g>
		<g>
			<path fill="#D8CA66" d="M314.2,220.4l-12.7,3.9c0,0,0,12.5,2,26.7c2.2,15.6,7.7,35.8,9.2,36.9c1.5,1.1,13.8-2,15.3-3.8
				c1.6-1.8-3.6-17.1-8.3-33C315.8,237.7,314.2,220.4,314.2,220.4z"/>
			<path d="M314,290.3L314,290.3c-1.1,0-1.9-0.2-2.5-0.6c-0.5-0.4-1.8-1.3-5.1-14.1c-2.1-8.3-3.7-17.1-4.7-24.1
				c-2-14.2-1.8-26.9-1.8-27v-1.5l16.2-5.1l0.1,2.5c0,0.2,1.6,17.2,5.4,30.5c1,3.6,2.1,7.2,3.1,10.5c5.3,17.6,6.4,22.3,4.7,24.3
				C327.6,287.8,317.5,290.3,314,290.3z M314,286C314,286,314,286,314,286c3.3,0,10.6-2,12.3-3.1c0.2-2.4-2.8-12-5.3-20.6
				c-1-3.4-2.1-6.9-3.2-10.6c-3.1-10.7-4.8-23.5-5.4-28.7l-8.9,2.8c0.1,3.7,0.4,13.7,2,24.9C307.6,265.8,312.4,283,314,286z"/>
		</g>
		<g>
			<path fill="#A8A439" d="M309.6,240.1c0,0,17.4,1.4,19.9,0.8c8.4-1.9,1.2-15.2-6-12.4C313.8,232.4,309.6,240.1,309.6,240.1z"/>
			<path d="M327.2,242.7L327.2,242.7c-5.4,0-17.2-0.9-17.7-1l-2.5-0.2l1.2-2.2c0.2-0.3,4.6-8.2,14.7-12.2c0.9-0.3,1.7-0.5,2.6-0.5
				c4.9,0,8.8,4.8,9.2,9.1c0.4,3.5-1.5,6.1-5,6.9C329.5,242.6,328.9,242.7,327.2,242.7z M312.6,238.7c3.9,0.3,10.9,0.8,14.7,0.8l0,0
				c1.5,0,1.9-0.1,1.9-0.1c1.9-0.4,2.7-1.5,2.5-3.4c-0.3-2.8-3.1-6.2-6.1-6.2c-0.5,0-1,0.1-1.5,0.3
				C318.2,232.4,314.4,236.3,312.6,238.7z"/>
		</g>
		<g>
			<path fill="#A8A439" d="M313.8,250.6c0,0,16.8,5,19.3,4.9c8.6-0.1,4.4-14.6-3.3-13.3C319.4,244,313.8,250.6,313.8,250.6z"/>
			<path d="M330.4,256.8L330.4,256.8c-5.3-1.1-16.6-4.5-17.1-4.6l-2.4-0.7l1.6-1.9c0.2-0.3,6.2-7.1,17-8.9c0.9-0.2,1.8-0.1,2.7,0
				c4.7,1,7.6,6.5,7.2,10.8c-0.3,3.5-2.8,5.7-6.3,5.7C332.7,257.2,332.1,257.2,330.4,256.8z M316.9,249.9c3.8,1.1,10.6,3,14.2,3.8
				l0,0c1.4,0.3,1.8,0.3,1.9,0.3c1.9,0,3-0.9,3.1-2.8c0.3-2.8-1.7-6.7-4.6-7.3c-0.5-0.1-1-0.1-1.5,0
				C323.7,244.9,319.2,247.9,316.9,249.9z"/>
		</g>
	</g>
</g>
<g id="arm_x5F_down">
	<g>
		<g>
			<path fill="#A8A439" d="M316.4,317c0.4-0.9,0.5-2,0.5-3c0.1-4.3-2-16.4-7.2-17.9c-8.2-2.3-31.2,12.3-31.2,12.3
				c1.2,3.9,4.6,12.8,6.6,16.3c2.4,4.2,9,8.2,12.5,2.4c0.5-0.9,1-2,2-2.1c0.5-0.1,1,0.2,1.4,0.3c2,0.7,4.3,0.6,6-0.6
				c1.7-1.1,1.7-2.8,2.9-4.2c1.2-1.4,2.9-0.4,4.5-1.2C315.4,318.8,316,318,316.4,317z"/>
			<path d="M293.1,331.6c-3.8,0-7.5-3.1-9.3-6.1c-2.1-3.6-5.6-12.7-6.8-16.6l-0.4-1.2l1-0.7c0.8-0.5,20.3-12.8,30.1-12.8
				c0.9,0,1.7,0.1,2.4,0.3c6.7,1.9,8.5,15.9,8.4,19.5c0,1.3-0.3,2.5-0.6,3.5c-0.6,1.5-1.5,2.6-2.7,3.2c-1,0.5-2,0.5-2.7,0.5
				c-0.9,0-1,0-1.2,0.3c-0.3,0.4-0.5,0.9-0.8,1.4c-0.5,1-1.1,2.2-2.4,3.1c-2.1,1.4-5,1.6-7.5,0.8l-0.2-0.1c-0.1-0.1-0.3-0.1-0.5-0.2
				c-0.2,0.2-0.4,0.6-0.6,0.9c-0.1,0.1-0.2,0.3-0.2,0.4C297.2,330.9,294.8,331.6,293.1,331.6z M280.5,309.1
				c1.4,4.1,4.3,11.7,6.1,14.8c1.3,2.2,4,4.5,6.5,4.5c1.3,0,2.4-0.7,3.2-2.1l0.2-0.4c0.5-0.9,1.3-2.3,2.9-2.5c0.8-0.1,1.5,0.1,2,0.3
				l0.2,0.1c1.5,0.6,3.4,0.4,4.6-0.4c0.6-0.4,0.9-0.9,1.3-1.8c0.3-0.6,0.6-1.4,1.2-2c1.1-1.4,2.7-1.4,3.7-1.4c0.5,0,1,0,1.3-0.2
				c0.5-0.3,0.9-0.8,1.2-1.5c0.3-0.7,0.4-1.5,0.4-2.5c0.1-4.3-2-15.2-6-16.3c-0.4-0.1-1-0.2-1.6-0.2
				C300.1,297.4,284.6,306.6,280.5,309.1z"/>
		</g>
		<g>
			<path fill="#D8CA66" d="M251.4,316.9l-15.3-59.7l21.3-18.6c0,0,27.4,12.1,50.3,50.1C307.7,288.6,282.6,294.8,251.4,316.9z"/>
			<path d="M250.1,320.4l-16.4-64L257,236l1.2,0.5c1.1,0.5,28.3,12.8,51.3,51l1.5,2.5l-2.8,0.7c-0.2,0.1-25.1,6.4-55.5,27.9
				L250.1,320.4z M238.5,257.9l14.2,55.5c24.4-16.8,44.5-23.9,51.7-26c-19.3-30.8-41.4-43.6-46.7-46.3L238.5,257.9z"/>
		</g>
		<g>
			<path fill="#D8CA66" d="M251.2,318.1l-3.9-14.1c0,0,11-6,24.7-11c15-5.4,36-9.9,37.9-9s6.2,14.2,5.6,16.5
				c-0.7,2.4-17.1,4.7-33.8,8C267.3,311.3,251.2,318.1,251.2,318.1z"/>
			<path d="M249.8,320.9l-5-18l1.5-0.8c0.5-0.2,11.3-6.2,25-11.2c14-5.1,32.9-9.2,37.7-9.2c0.8,0,1.3,0.1,1.8,0.3
				c3.2,1.6,7.5,16.3,6.7,19c-0.8,2.8-5.3,3.9-24.4,7.4c-3.6,0.7-7.3,1.3-11.1,2.1c-13.9,2.7-29.8,9.4-30,9.4L249.8,320.9z
				 M249.8,305.1l2.8,10.1c5-2,17.2-6.6,28.6-8.8c3.8-0.7,7.6-1.4,11.2-2.1c8.4-1.5,18.8-3.4,21.1-4.8c-0.1-2.5-3-11.5-4.5-13.6
				c-4,0.1-22.3,3.9-36.2,9C262.2,298.8,253.2,303.3,249.8,305.1z"/>
		</g>
	</g>
</g>
<g id="arm_x5F_cane">
	<g>
		<g>
			<path fill="#382318" d="M110.5,388.1h-0.2c-3,0-5.4-1.4-5.4-4.4l-1-72.9c0-3,3.4-4.4,6.4-4.4h0.2c3,0,6.4,1.4,6.4,4.4l-1,72.9
				C115.9,386.6,113.5,388.1,110.5,388.1z"/>
			<path d="M110.5,389.6h-0.2c-4.1,0-6.9-2.4-6.9-5.9l-1-72.9c0-3.9,4-6,7.9-6h0.2c3.9,0,7.9,2,7.9,5.9l-1,73
				C117.4,387.2,114.6,389.6,110.5,389.6z M110.2,307.8c-2,0-4.9,0.9-4.9,2.9l1,72.9c0,2.7,2.8,3,3.9,3h0.2c1.2,0,3.9-0.3,3.9-2.9
				l1-73c0-2-2.9-2.9-4.9-2.9H110.2z"/>
		</g>
		<g>
			<path fill="#A8A439" d="M97.1,307.5c-0.3-1-0.4-2.1-0.3-3.1c0.2-4.3,3.2-16.2,8.5-17.3c8.3-1.6,27.8,19.5,27.8,19.5
				c-1.4,3.8-3.2,7.5-5.5,10.9c-2.7,4-9.6,7.5-12.6,1.4c-0.4-0.9-0.8-2-1.8-2.2c-0.5-0.1-1,0.1-1.5,0.2c-2,0.6-4.3,0.2-6-1
				c-1.6-1.2-1.5-2.9-2.5-4.4c-1.1-1.5-2.9-0.6-4.3-1.5C97.9,309.5,97.4,308.6,97.1,307.5z"/>
			<path d="M119.8,323.9c-2.7,0-4.9-1.5-6.3-4.2c-0.1-0.1-0.1-0.3-0.2-0.4c-0.1-0.3-0.4-0.8-0.5-0.9c-0.1,0-0.3,0.1-0.5,0.1
				l-0.2,0.1c-2.5,0.7-5.4,0.2-7.4-1.3c-1.3-1-1.8-2.3-2.2-3.3c-0.2-0.6-0.4-1-0.7-1.5c-0.1-0.2-0.3-0.3-1.2-0.3
				c-0.8-0.1-1.7-0.2-2.7-0.7c-1.2-0.7-2-1.9-2.5-3.4c-0.3-1-0.4-2.2-0.4-3.6c0.2-3.6,3-17.4,9.8-18.8c0.4-0.1,0.8-0.1,1.3-0.1
				c9.2,0,26.1,18.1,28,20.1l0.7,0.7l-0.4,0.9c-1.7,4.5-3.6,8.1-5.7,11.2C127.2,321.1,123.6,323.9,119.8,323.9z M112.9,315.2
				c0.2,0,0.4,0,0.6,0.1c1.6,0.3,2.3,1.8,2.7,2.7c0.1,0.1,0.1,0.3,0.2,0.4c0.8,1.6,1.9,2.4,3.4,2.4c2.2,0,5-1.7,6.5-4
				c1.8-2.6,3.4-5.8,4.9-9.6c-5.4-5.7-18.6-18.4-24.9-18.4c-0.2,0-0.5,0-0.7,0.1c-4,0.8-7.1,11.5-7.2,15.8c0,1,0,1.8,0.2,2.5
				c0.2,0.8,0.6,1.3,1.1,1.6c0.3,0.2,0.8,0.2,1.3,0.3c1,0.1,2.5,0.2,3.5,1.7c0.5,0.7,0.8,1.5,1,2.1c0.4,0.9,0.6,1.5,1.1,1.9
				c1.2,0.9,3,1.2,4.6,0.8l0.2-0.1C111.8,315.3,112.3,315.2,112.9,315.2z"/>
		</g>
		<g>
			<path fill="#D8CA66" d="M156.6,317.3l27-55.4l-17.1-22.5c0,0-29.3,6.3-59.3,39C107.1,278.3,130.5,289.4,156.6,317.3z"/>
			<path d="M157.1,321l-2.1-2.3c-25.5-27.3-48.6-38.4-48.8-38.5l-2.6-1.2l2-2.1c30.2-32.8,59.2-39.4,60.5-39.6l1.3-0.3l18.7,24.7
				L157.1,321z M110.6,277.7c6.6,3.6,24.9,14.5,45.4,35.9l25.1-51.5l-15.4-20.4C159.9,243.3,135.6,251.4,110.6,277.7z"/>
		</g>
		<g>
			<path fill="#D8CA66" d="M156.6,318.5l6.7-13c0,0-9.6-8.1-22-15.8c-13.6-8.3-33.3-16.9-35.3-16.4c-2,0.5-9,12.7-8.8,15.1
				c0.2,2.5,15.8,8.1,31.5,14.6C142.1,308.6,156.6,318.5,156.6,318.5z"/>
			<path d="M157.4,321.6l-2-1.4c-0.1-0.1-14.4-9.8-27.5-15.3c-3.6-1.5-7.1-2.9-10.5-4.3c-17.9-7.2-22.1-9.2-22.4-12.1
				c-0.2-2.8,6.9-16.4,10.4-17.3c0.2-0.1,0.5-0.1,0.7-0.1c3.6,0,23.3,8.8,36.2,16.8c12.4,7.6,21.9,15.6,22.3,15.9l1.3,1.1
				L157.4,321.6z M99.4,287.9c2,1.8,11.8,5.7,19.6,8.9c3.4,1.4,6.9,2.8,10.5,4.3c10.7,4.4,21.8,11.4,26.2,14.3l4.8-9.3
				c-3-2.4-10.9-8.6-20.4-14.5c-12.8-7.9-30.1-15.4-33.6-16.1C104.6,277.2,100,285.3,99.4,287.9z"/>
		</g>
	</g>
</g>
<g id="body_x5F_line_x5F_color">
	<g>
		<g>
			<path fill="#A8A439" d="M182.5,377.4c0,0,6.3,8.2,8.7,8c0,0,5.8-4.5,7.2-11.6l-0.6-19.6l-42.1,4.8c0,0-13.6,14.3-12.3,17.2
				c1.2,2.9,16.2-1.3,16.2-1.3s4.7,10.3,8.8,12.3C172.4,389.3,177.9,382.8,182.5,377.4z"/>
			<path d="M169.9,389.1C169.9,389.1,169.9,389.1,169.9,389.1c-0.8,0-1.6-0.2-2.3-0.5c-3.7-1.8-7.5-9-9-11.9
				c-2.5,0.7-8.4,2.1-12.2,2.1c-0.9,0-3.7,0-4.6-1.9c-1.3-3.2,6.1-12,12.6-18.8l0.4-0.4l44.3-5l0.6,21.4l0,0.2
				c-1.5,7.6-7.5,12.3-7.7,12.5l-0.4,0.3l-0.6,0c-2.3,0-6.1-4-8.6-7.1C178.5,384.4,174.1,389.1,169.9,389.1z M160.3,373.1l0.5,1.2
				c1.7,3.8,5.4,10.3,8.1,11.6c3.1,1.5,8.5-4.9,12.4-9.5l1.2-1.4l1.1,1.5c2.7,3.4,5.8,6.6,7.1,7.3c1.4-1.2,5-4.9,6-10.1l-0.5-17.8
				l-40,4.6c-5.5,5.9-11.2,13-11.6,15.1c0.2,0.1,0.7,0.2,1.7,0.2c4.5,0,12.6-2.3,12.7-2.3L160.3,373.1z"/>
		</g>
		<g>
			<path fill="#A8A439" d="M238,377.4c0,0-6.3,8.2-8.7,8c0,0-5.8-4.5-7.2-11.6l0.6-19.6l42.1,4.8c0,0,13.6,14.3,12.3,17.2
				c-1.2,2.9-16.2-1.3-16.2-1.3s-4.7,10.3-8.8,12.3C248.1,389.3,242.6,382.8,238,377.4z"/>
			<path d="M250.5,389.1c-4.1,0-8.5-4.7-12.5-9.4c-2.6,3.2-6.3,7.1-8.6,7.1l-0.6,0l-0.4-0.3c-0.3-0.2-6.3-4.9-7.7-12.5l0-0.2
				l0.6-21.4l44.3,5l0.4,0.4c6.5,6.8,14,15.7,12.6,18.8c-0.8,1.9-3.6,1.9-4.6,1.9c-3.8,0-9.7-1.4-12.2-2.1c-1.4,2.9-5.2,10.1-9,11.9
				C252.1,389,251.4,389.1,250.5,389.1z M237.9,375l1.2,1.4c3.9,4.5,9.3,11,12.4,9.5c2.6-1.3,6.4-7.8,8.1-11.6l0.5-1.2l1.2,0.3
				c0.1,0,8.2,2.3,12.7,2.3c1,0,1.5-0.1,1.7-0.2c-0.4-2.1-6.1-9.2-11.6-15.1l-40-4.6l-0.5,17.8c1.1,5.2,4.7,8.9,6.1,10.1
				c1.2-0.7,4.4-3.8,7.1-7.3L237.9,375z"/>
		</g>
		<g>
			<g>
				<g>
					<g>
						<path fill="#D8CA66" d="M211,239h46.4c0,0,23.7,33.2,26.7,60.5l2.7,23.3c0,0,4.3,34.3,4.8,37.3s3.1,3.8,3.1,3.8
							s4.7,9.7,0.6,10c-4.1,0.3-13.4,0.3-22.8-4.4c-7-3.5-22.4-2.7-41.5-0.6c-6.5,0.7-12.6,4.3-20.1,4.3c-9.3,0-23.9-3.9-23.9-3.9
							l0.1-6.5c0,0-32.6,4-37.8,6.6c-9.3,4.7-18.7,4.6-22.8,4.3c-4.1-0.3,1.6-10.8,1.6-10.8s1.5-0.5,2-3.5s4.8-38,4.8-38l2.7-21.8
							c3-27.3,26.7-60.5,26.7-60.5H198H211z"/>
						<path d="M297.9,371c-0.1-1.4-0.4-2.7-0.8-4c-0.4-1.3-0.9-2.5-1.4-3.7l-0.2-0.4l-0.5-0.2c-0.3-0.2-0.9-0.5-1.2-0.9
							c-0.3-0.4-0.6-0.8-0.7-1.3c-0.1-0.4-0.2-1.1-0.3-1.8l-0.2-2.1l-0.9-8.3l-1.8-16.6c-0.3-2.8-0.6-5.5-0.9-8.3l-0.9-8.3
							c-0.6-5.5-1.2-11-1.8-16.6c-0.3-2.9-0.9-5.7-1.6-8.5c-0.7-2.8-1.5-5.5-2.4-8.2c-0.9-2.7-2-5.3-3.1-7.9
							c-1.1-2.6-2.3-5.1-3.5-7.7c-2.5-5-5.3-9.9-8.2-14.7c-2.9-4.8-6-9.4-9.3-13.9l-0.3-0.4l-0.5,0l-11.6,0.3
							c-3.9,0.1-7.7,0.2-11.6,0.2c-3.9,0.1-7.7,0.1-11.6,0.1l-11.6,0.1l-11.7-0.1c-3.9,0-7.8-0.1-11.7-0.1
							c-3.9-0.1-7.8-0.1-11.7-0.2l-10.6-0.3c-0.6,0.1-1.2,0.2-1.7,0.2l-0.2,0.2c-3.3,4.5-6.3,9.1-9.2,13.8
							c-2.9,4.7-5.6,9.5-8.1,14.5c-1.3,2.5-2.4,5-3.5,7.5c-1.1,2.6-2.2,5.1-3.1,7.8c-0.9,2.6-1.8,5.3-2.5,8.1
							c-0.4,1.4-0.7,2.7-1,4.1c-0.3,1.4-0.5,2.9-0.7,4.2l-4.2,32.7l-2,16.3l-1,8.2c-0.2,1.4-0.3,2.7-0.5,4c-0.1,0.5-0.2,0.9-0.4,1.2
							c-0.1,0.1-0.1,0.3-0.2,0.3l0,0c0,0,0,0,0,0l0.1,0c0.1,0,0,0,0.2-0.1l-1.4,1.2c-0.8,1.5-1.4,2.9-2,4.5
							c-0.3,0.8-0.6,1.6-0.8,2.4c-0.2,0.9-0.4,1.8-0.5,2.9c0,0.6,0,1.2,0.3,2c0.1,0.4,0.4,0.8,0.7,1.3c0.3,0.4,0.8,0.8,1.3,1
							c0.2,0.1,0.5,0.2,0.7,0.3c0.1,0,0.3,0.1,0.4,0.1l0.2,0l0.4,0l0.3,0l1.2,0.1c1.6,0.1,3.3,0,4.9-0.1c3.2-0.2,6.5-0.8,9.6-1.7
							c1.6-0.4,3.1-1,4.6-1.6c0.8-0.3,1.6-0.7,2.2-1l1-0.5c0.2-0.1,0.5-0.2,0.8-0.3c1.3-0.4,2.8-0.8,4.2-1.1c1.5-0.3,3-0.6,4.5-0.9
							c3-0.6,6-1.1,9.1-1.6c5.4-0.9,10.7-1.7,16.1-2.4l0,4.2l0,1.5l1.4,0.3c2.5,0.6,5,1.1,7.5,1.6c2.5,0.5,5,0.9,7.6,1.2
							c2.6,0.3,5.1,0.6,7.7,0.6c2.6,0.1,5.3-0.2,7.8-0.8c2.5-0.6,5-1.4,7.4-2.2c1.2-0.4,2.4-0.7,3.6-1c0.6-0.2,1.2-0.3,1.8-0.4
							l0.9-0.1l0.4-0.1l0.5-0.1c5-0.7,10-1.2,15.1-1.6c2.5-0.2,5-0.3,7.5-0.4c2.5-0.1,5,0,7.5,0.1c2.5,0.2,5,0.4,7.3,1.1
							c1.2,0.3,2.3,0.8,3.4,1.3c1.2,0.6,2.3,1.1,3.6,1.5c4.8,1.8,10,2.8,15.1,3c1.3,0,2.6,0,3.9-0.1c0.4,0,0.9-0.1,1.4-0.4
							c0.5-0.3,0.8-0.7,1-1.1C298,372.5,298,371.7,297.9,371z M126.7,371.2C126.7,371.2,126.7,371.2,126.7,371.2L126.7,371.2
							C126.7,371.2,126.7,371.2,126.7,371.2z M295.7,372.5c-0.1,0.3-0.2,0.3-0.7,0.4c-1.3,0.1-2.5,0.2-3.7,0.2
							c-4.9,0-9.9-0.8-14.6-2.6c-1.2-0.4-2.3-0.9-3.4-1.4c-1.1-0.6-2.4-1.1-3.7-1.4c-2.5-0.7-5.1-1-7.6-1.1
							c-5.1-0.3-10.2-0.1-15.3,0.1c-5.1,0.3-10.1,0.8-15.2,1.2l-0.5,0l-0.5,0.1l-0.9,0.1c-0.7,0.1-1.3,0.2-2,0.4
							c-1.3,0.3-2.5,0.6-3.8,0.9c-2.5,0.7-4.8,1.4-7.3,1.9c-2.4,0.5-4.7,0.7-7.2,0.5c-2.4-0.1-4.9-0.5-7.4-0.9
							c-2.5-0.4-4.9-0.9-7.4-1.5c-2-0.4-3.9-0.9-5.9-1.5l0.1-5l0.1-2.2l-2.2,0.2c-6.2,0.7-12.3,1.5-18.4,2.3
							c-3.1,0.4-6.1,0.9-9.2,1.4c-1.5,0.3-3.1,0.5-4.6,0.9c-1.6,0.3-3.1,0.7-4.7,1.2c-0.4,0.2-0.8,0.3-1.3,0.5l-1.1,0.5
							c-0.3,0.2-0.7,0.3-1,0.5l-1,0.4c-1.3,0.5-2.7,1-4.1,1.4c-2.8,0.8-5.7,1.2-8.6,1.4c-1.5,0.1-2.9,0.1-4.4,0l-0.7,0
							c0-0.4,0.2-0.9,0.3-1.4c0.2-0.6,0.4-1.3,0.7-1.9c0.4-1.1,1-2.2,1.5-3.3c0,0,0.1,0,0.1,0c0.3-0.2,0.5-0.4,0.7-0.7
							c0.4-0.4,0.7-0.9,1-1.4c0.5-0.9,0.7-1.8,0.9-2.7c0.2-1.5,0.4-2.8,0.6-4.2c0.4-2.7,0.7-5.4,1.1-8.2l2.1-16.3
							c0.7-5.4,1.3-10.9,1.9-16.4l1.9-16.3c0.2-1.4,0.4-2.6,0.6-3.9c0.3-1.3,0.5-2.6,0.8-3.9c0.6-2.6,1.3-5.2,2.2-7.7
							c1.6-5.1,3.6-10.2,5.8-15.1c2.2-5,4.6-9.9,7.2-14.7c1.3-2.4,2.6-4.8,4-7.1c1.3-2.2,2.6-4.4,4-6.6l11.1-0.3
							c3.9-0.1,7.8-0.2,11.7-0.2c3.9-0.1,7.8-0.1,11.7-0.1l11.7-0.1l11.6,0.1c3.9,0,7.7,0.1,11.6,0.1c3.9,0.1,7.7,0.1,11.6,0.2
							l11.1,0.3c1.4,2.2,2.8,4.4,4.1,6.7c1.4,2.4,2.8,4.8,4.1,7.2c2.6,4.9,5.1,9.8,7.3,14.8c1.1,2.5,2.2,5,3.2,7.6
							c1,2.6,1.9,5.1,2.7,7.7c0.8,2.6,1.6,5.2,2.2,7.8c0.6,2.6,1.1,5.3,1.4,7.9c0.7,5.5,1.3,11,2,16.5l1.1,8.3
							c0.4,2.8,0.8,5.5,1.2,8.2l2.5,16.5l1.3,8.2l0.3,2.1c0.1,0.7,0.2,1.3,0.5,2.3c0.3,0.8,0.8,1.6,1.5,2.2c0.3,0.3,0.7,0.6,1,0.8
							c0.2,0.1,0.5,0.3,0.7,0.4c1,2.1,1.8,4.3,2.1,6.4C295.9,371.7,295.8,372.2,295.7,372.5z"/>
					</g>
					<path fill="#A8A439" d="M206.8,236.2c-4.9,0.1-10,0.5-14.9-0.1l4,12.8l16.7,13.8l22.4-17.9v-8.6
						C225.6,236.3,216.2,236.1,206.8,236.2z"/>
					<g>
						<path fill="#261315" d="M210,253.9c-7.5-6.5-13-15.4-13-15.4l-20.5-2.3c-0.5,0.1-1,0.1-1.5,0.2c0.2,1.6,1.6,8.6,8.5,15.7
							c5.5,5.6,17.8,8.3,26.7,15.5c1.3-2.7,3-5.3,4.9-7.6C214.1,257.5,211.7,255.3,210,253.9z"/>
						<path d="M210.7,269.9l-1.5-1.2c-4.3-3.5-9.4-5.9-14.3-8.2c-4.9-2.3-9.5-4.4-12.5-7.4c-7.1-7.2-8.6-14.5-8.9-16.5l-0.2-1.6
							l1.6-0.1c0.5,0,0.9-0.1,1.4-0.2l0.2,0l21.4,2.4l0.4,0.6c0.1,0.1,5.4,8.8,12.7,15c2.1,1.8,4.4,4,5.5,6.5l0.4,0.8l-0.6,0.7
							c-1.8,2.2-3.4,4.7-4.7,7.3L210.7,269.9z M176.9,237.7c0.7,2.7,2.5,8,7.7,13.2c2.6,2.6,7,4.7,11.6,6.8c4.3,2,9.2,4.3,13.5,7.4
							c1.1-1.9,2.3-3.8,3.6-5.5c-1.2-2-3.2-3.8-4.3-4.7c-6.5-5.7-11.5-12.9-12.9-15.1L176.9,237.7z"/>
					</g>
					<g>
						<path fill="#261315" d="M206.1,279.8c0,0,2.5-19.4,10-25.9s14-15.4,14-15.4l18-2.5c0,0,3.4,8-4.5,16S212.1,262,206.1,279.8z"
							/>
						<path d="M202.7,294.2l1.9-14.6c0.1-0.8,2.6-20,10.5-26.8c7.3-6.3,13.7-15,13.7-15.1l0.4-0.5l19.8-2.7l0.4,1.1
							c0.2,0.4,3.7,9-4.8,17.6c-3,3-8,5.2-13.3,7.5c-9.4,4.1-20.1,8.8-23.8,19.6L202.7,294.2z M230.8,239.9
							c-1.5,2-7.2,9.4-13.8,15.1c-3.8,3.3-6.3,10.3-7.7,16.1c5.5-6.5,13.8-10.2,20.8-13.2c5-2.2,9.7-4.3,12.3-6.9
							c5.5-5.5,5-11,4.5-13.3L230.8,239.9z"/>
					</g>
				</g>
				<path d="M259.2,240C259.2,240,259.2,240,259.2,240c-0.2,1-0.5,2.2-0.8,3.5c-0.7,2.5-1.8,5.5-3.6,8.5c-1.8,3-4.6,6-8.3,8
					c-0.9,0.5-1.9,1-3,1.4c-1.1,0.4-2.2,0.9-3.3,1.3c-2.3,0.8-4.6,1.6-7.1,2.5c-4.9,1.8-10,4-15.1,6.7c-0.6,0.3-1.3,0.7-1.9,1
					c-0.6,0.3-1.3,0.7-1.9,1.1c-1.2,0.8-2.5,1.6-3.7,2.5c-1.2,0.9-2.3,1.9-3.3,3.1c-1,1.1-2,2.4-2.8,3.7c-0.8,1.4-1.4,2.8-1.9,4.2
					c-0.5,1.4-1.1,2.8-1.7,4.1c-1.2,2.7-2.5,5.5-3.7,8.3c-2.4,5.6-4.3,11.5-5.8,17.3c-1.6,5.8-2.6,11.7-3.5,17.3
					c-0.4,2.8-0.8,5.6-1.1,8.4c-0.3,2.7-0.6,5.4-0.8,8c-0.2,2.6-0.4,5.2-0.5,7.6c-0.1,2.5-0.2,4.8-0.3,7.1c-0.1,1.8-0.1,3.6-0.1,5.3
					c0.6,0,1.2,0.1,1.8,0.2c0.6,0.1,1.1,0.2,1.7,0.3c0.2-1.8,0.3-3.6,0.4-5.5c0.4-4.5,0.7-9.4,1.2-14.6c0.5-5.1,1.1-10.6,1.9-16.1
					c0.8-5.6,1.7-11.3,3-17c1.3-5.7,3.1-11.4,5.1-17.1c1.1-2.8,2.1-5.7,3.2-8.5c0.5-1.5,1-2.9,1.5-4.3c0.5-1.5,0.8-2.8,1.4-4.1
					c1.1-2.6,2.9-4.9,5.2-6.7c1.1-0.9,2.3-1.7,3.5-2.4c1.2-0.7,2.5-1.3,3.8-1.9c5.2-2.1,10.6-3.2,15.6-4.7c2.5-0.8,4.9-1.6,7.2-2.5
					c1.1-0.5,2.3-0.9,3.4-1.4c1.1-0.5,2.2-1.1,3.3-1.7c4.2-2.5,7-6.2,8.8-9.6c1.8-3.5,2.6-6.7,3-9.4c0.1-0.9,0.2-1.7,0.3-2.4
					C259.8,241,259.4,240.5,259.2,240z"/>
				<path d="M206.4,272.7c-0.4-0.2-1.1-0.5-1.9-0.8c-0.8-0.4-1.8-0.8-2.9-1.4c-1.1-0.6-2.4-1.2-3.7-1.9c-1.4-0.7-2.8-1.5-4.4-2.3
					c-1.5-0.9-3.1-1.7-4.8-2.7c-0.8-0.5-1.7-0.9-2.5-1.4c-0.4-0.2-0.9-0.5-1.3-0.7c-0.4-0.2-0.8-0.5-1.2-0.7c-1.7-1-3.3-2.2-4.8-3.4
					c-3-2.5-5.7-5.5-7.8-8.6c-1-1.5-2-3.1-2.8-4.6c-0.8-1.5-1.5-3-2.1-4.4c-0.3-0.8-0.6-1.5-0.8-2.2c-0.5,0.1-0.9,0.1-1.4,0.2
					c0.2,0.8,0.4,1.7,0.6,2.6c0.4,1.5,0.9,3.1,1.7,4.8c0.7,1.7,1.5,3.4,2.6,5.1c1,1.7,2.2,3.4,3.6,5c1.4,1.6,2.9,3.1,4.5,4.5
					c1.6,1.4,3.4,2.6,5.2,3.6c0.5,0.3,0.9,0.5,1.4,0.8c0.4,0.2,0.9,0.5,1.3,0.7c0.9,0.5,1.7,0.9,2.6,1.3c1.7,0.9,3.4,1.7,5.1,2.4
					c1.6,0.7,3.2,1.4,4.6,1.9c2.9,1.1,5.4,1.8,7.2,2.2c1.8,0.4,2.8,0.5,2.8,0.5S206.8,272.9,206.4,272.7z"/>
				<g>
					<path fill="#261315" d="M134.7,299.3c0,0,25.5,3.7,73.4,3.7s79.3-3.7,79.3-3.7l2.8,23.5c0,0-29.7,3.8-82,3.8
						c-49.6,0-76.2-5.2-76.2-5.2L134.7,299.3z"/>
					<path d="M208.2,328c-49.2,0-76.2-5.1-76.5-5.2l-1.4-0.3l3.2-25.1l1.5,0.2c0.3,0,26,3.7,73.2,3.7c47.3,0,78.8-3.7,79.1-3.7
						l1.5-0.2l3.1,26.5l-1.5,0.2C290.1,324.3,260,328,208.2,328z M133.7,320.1c6.1,1,31.9,4.9,74.5,4.9c45.1,0,73.7-2.9,80.3-3.6
						l-2.4-20.4c-6.9,0.7-36.3,3.6-77.9,3.6c-41,0-65.9-2.8-72.1-3.6L133.7,320.1z"/>
				</g>
				<g>
					<path fill="#261315" d="M264.6,328.4l-21.6,1.1c-4,0.2-7.4-2.8-7.6-6.8l-0.8-15.3c-0.2-4,2.8-7.4,6.8-7.6l21.6-1.1
						c4-0.2,7.4,2.8,7.6,6.8l0.8,15.3C271.6,324.8,268.5,328.2,264.6,328.4z"/>
					<path d="M242.6,331.1c-4.6,0-8.5-3.6-8.7-8.3l-0.8-15.3c-0.1-2.3,0.7-4.6,2.2-6.3c1.6-1.7,3.7-2.8,6-2.9l21.6-1.1
						c4.8-0.2,8.9,3.5,9.2,8.3l0.8,15.3c0.3,4.8-3.5,8.9-8.3,9.2l-21.6,1.1C242.9,331.1,242.8,331.1,242.6,331.1z M263.4,300.2
						c-0.1,0-0.2,0-0.3,0l-21.6,1.1c-3.1,0.2-5.5,2.8-5.4,6l0.8,15.3c0.2,3.1,2.8,5.5,6,5.4l21.6-1.1c3.1-0.2,5.5-2.8,5.4-6
						l-0.8-15.3C268.9,302.6,266.4,300.2,263.4,300.2z"/>
				</g>
			</g>
			<path d="M128,361.4c0,0,1.9-0.1,4.7-0.3c1.4-0.1,3.1-0.2,4.8-0.4c0.9-0.1,1.8-0.2,2.7-0.4c0.9-0.1,1.8-0.3,2.7-0.5
				c0.5-0.1,0.8-0.2,1.3-0.4c0.4-0.1,0.9-0.3,1.4-0.4c1-0.2,1.9-0.4,2.8-0.5c1.8-0.2,3.5-0.4,4.9-0.5c2.9-0.2,4.8-0.2,4.8-0.2
				s-1.9,0.2-4.7,0.7c-1.4,0.2-3,0.5-4.7,1c-0.9,0.2-1.7,0.5-2.6,0.7c-0.4,0.1-0.8,0.3-1.3,0.5c-0.4,0.2-0.9,0.4-1.4,0.6
				c-0.9,0.3-1.9,0.6-2.8,0.8c-0.9,0.2-1.8,0.4-2.7,0.6c-1.8,0.4-3.4,0.7-4.8,0.9c-2.8,0.5-4.7,0.7-4.7,0.7L128,361.4z"/>
			<path d="M294.7,365.4c0,0-0.7,0-1.8,0c-1.1,0-2.7-0.1-4.6-0.3c-1.9-0.2-4.1-0.5-6.4-1.1c-1.2-0.3-2.4-0.7-3.6-1.4
				c-0.1-0.1-0.3-0.2-0.4-0.3l-0.4-0.3l-0.4-0.3l-0.3-0.2c-0.5-0.3-1-0.5-1.6-0.7c-2.2-0.9-4.7-1.5-6.9-2c-2.3-0.5-4.4-1-6.2-1.3
				c-3.7-0.7-6.1-1.1-6.1-1.1s2.5,0.2,6.2,0.6c1.9,0.2,4,0.5,6.3,0.8c2.3,0.4,4.8,0.8,7.2,1.5c0.6,0.2,1.2,0.4,1.8,0.7l0.5,0.2
				l0.4,0.2l0.4,0.2c0.1,0.1,0.2,0.1,0.4,0.2c1,0.5,2.1,0.7,3.2,0.9c2.2,0.4,4.3,0.5,6.1,0.6c1.8,0,3.3,0,4.4,0
				c1.1-0.1,1.7-0.1,1.7-0.1L294.7,365.4z"/>
		</g>
	</g>
</g>
<g id="head_x5F_color">
	<path fill="#A8A439" d="M385.1,99.4c-3,5.1-6.5,10-8.5,15.6c-2.8,7.6-2.5,16-3,24.1c-0.5,8.1-3.7,16.1-9.1,22.2
		c-7,7.9-17.1,7.9-27.2,10.8c-7.6,2.2-14.6,7.5-21.4,11.6c-12.1,45.9-52.3,63.4-101.1,63.4c-61,0-93-34.5-105.4-69.7
		c-6.7-2.3-10.9-5.1-19.9-7.6c-10.2-2.9-21.8-2.9-28.8-10.8c-5.4-6.1-7.1-11.7-7.6-19.8c-0.5-8.1-0.2-16.5-3-24.1
		c-2-5.6-5.6-10.4-8.5-15.6c-1.3-2.3-4.3-9.7-3.6-12.3c0.8-3.1,3.9-3,7.1-3c3.2-0.1,8.2,3.9,10.9,5.5c5.2,3,9.9,6.8,13.8,11.3
		c2.7,3,5.1,6.3,8.5,8.5c7.6,4.9,17.6,2.7,26.5,1c8.8-1.7,19.2-2.3,25.2,4.2c18.9-21.2,49.8-35,84.8-35c34.2,0,64.5,13.2,83.5,33.6
		c6.1-5,15.6-4.4,23.7-2.8c8.9,1.8,18.9,4,26.5-1c3.4-2.2,5.8-5.5,8.5-8.5c4-4.5,8.7-8.3,13.8-11.3c2.8-1.6,5.8-3,9-3
		c3.2,0.1,6.6,2,7.3,5.1C387.7,94.3,386.5,97,385.1,99.4z"/>
</g>
<g id="head_x5F_accent_x5F_colors">
	<path fill="#8C8734" d="M127.5,154c0,0-8.2,8.8-12.9,10.7c-4.7,1.8-10.2,1.3-14-4.2c-3.8-5.5-11.7-13.4-16.3-13.9
		c-4.7-0.5-12.5,3.5-16.7-1c-4.2-4.5-5.8-11.7-6.3-22.2s-11.1-24.5-7.8-26c2.5-1.2,9.2,14.3,14.3,19s16.8,7.5,22.4,6.3
		c5.6-1.2,17.1-4.5,24.6,10.5S121.9,152.2,127.5,154z"/>
	<path fill="#8C8734" d="M296.9,157c0,0,8.2,8.8,12.9,10.7c4.7,1.8,10.2,1.3,14-4.2c3.8-5.5,11.7-13.4,16.3-13.9s12.5,3.5,16.7-1
		c4.2-4.5,5.8-11.7,6.3-22.2s11.1-24.5,7.8-26c-2.5-1.2-9.2,14.3-14.3,19s-16.8,7.5-22.4,6.3c-5.6-1.2-17.1-4.5-24.6,10.5
		S302.5,155.2,296.9,157z"/>
</g>
<g id="head_x5F_lines">
	<g>
		<path d="M141,126.6c0,0-0.6-0.8-1.9-2.2c-1.3-1.4-3.2-3.4-5.8-5.7c-2.6-2.2-6-4.9-10.3-6.6c-2.1-0.8-4.5-1.3-7-1.2
			c-0.3,0-0.6,0-0.9,0.1c-0.3,0-0.6,0.1-1,0.1c-0.7,0.1-1.4,0.2-2.1,0.4c-1.4,0.3-2.9,0.5-4.4,0.8c-3,0.5-6.1,1.1-9.4,1.6
			c-1.7,0.3-3.3,0.5-5.1,0.6c-1.7,0.1-3.5,0.2-5.4,0.1c-1.9-0.1-3.8-0.4-5.8-1c-1-0.3-2-0.8-2.9-1.4l-0.7-0.5l-0.6-0.5l-1-1
			c-2.6-2.6-5.2-5.3-7.9-8c-2.7-2.7-5.5-5.4-8.4-7.9c-2.9-2.6-6-4.9-9.5-6.9c-1.7-1-3.5-1.9-5.3-2.5c-1.8-0.6-3.7-0.7-5.2,0.2
			c-0.1,0.1-0.2,0.1-0.3,0.2c0,0-0.2,0.1-0.3,0.2c-0.2,0.1-0.2,0.2-0.4,0.4c-0.2,0.3-0.4,0.6-0.5,1c-0.2,0.8-0.2,1.7-0.1,2.6
			c0.3,1.8,1,3.7,1.8,5.4c0.8,1.8,1.8,3.5,2.9,5.2c0.5,0.8,1.1,1.7,1.7,2.5l1.8,2.5c0.3,0.4,0.6,0.8,0.9,1.3l0.8,1.4
			c0.6,0.9,1,1.8,1.5,2.8c0.9,1.9,1.7,3.8,2.4,5.8c2.6,8,2.7,16.3,3,23.8c0.2,3.4,1.2,6.7,2.9,9.4c1.7,2.7,4.1,4.9,6.7,6.8
			c2.6,1.9,5.5,3.6,8.3,4.8c2.8,1.2,5.7,2.2,8.6,3c2.9,0.8,5.7,1.6,8.5,2.5c1.4,0.5,2.7,1,4,1.6c0.6,0.3,1.3,0.6,1.9,0.9
			c0.3,0.2,0.6,0.3,0.9,0.5c0.3,0.2,0.5,0.3,0.8,0.5c2.1,1.4,4,2.7,5.8,3.6c1.8,1,3.5,1.6,5.2,2c3.3,0.8,6.1,0.7,8,0.7
			c0.9,0,1.7-0.1,2.2-0.1c0.5,0,0.7,0,0.7,0l0.1,0.5c0,0-0.2,0.1-0.7,0.2c-0.5,0.1-1.2,0.3-2.1,0.5c-1.9,0.3-4.7,0.8-8.5,0.5
			c-1.9-0.2-3.9-0.6-6-1.5c-2.1-0.9-4.2-2-6.3-3.1c-0.3-0.1-0.6-0.3-0.8-0.4c-0.3-0.1-0.5-0.2-0.8-0.4c-0.5-0.3-1.1-0.5-1.6-0.7
			c-1.1-0.4-2.4-0.8-3.7-1.2c-2.6-0.7-5.4-1.3-8.4-2c-3-0.7-6.2-1.5-9.4-2.9c-3.2-1.4-6.3-3-9.4-5.1c-3-2.1-6-4.9-8.2-8.4
			c-1.1-1.8-1.9-3.7-2.4-5.7c-0.6-2-0.8-4.1-0.9-6.2c0-0.5,0-0.9,0-1.5l0-1.4c0-0.9,0-1.9,0-2.9c0-1.9-0.1-3.8-0.2-5.7
			c-0.2-3.8-0.7-7.6-1.7-11.3c-0.4-1.9-1.1-3.7-1.8-5.5c-0.4-0.9-0.7-1.8-1.2-2.6l-0.6-1.3c-0.2-0.4-0.5-0.9-0.7-1.3
			c-2.1-3.4-4.3-7-5.8-10.9c-0.8-1.9-1.5-4-1.7-6.2c-0.1-1.1-0.1-2.3,0.3-3.4c0.2-0.6,0.5-1.1,0.9-1.6c0.2-0.2,0.5-0.5,0.7-0.7
			c0.1-0.1,0.2-0.1,0.4-0.2c0.1-0.1,0.2-0.2,0.4-0.2c1-0.6,2.2-0.8,3.3-0.8c1.1,0,2.2,0.3,3.2,0.6c2,0.7,3.8,1.7,5.6,2.7
			c1.7,1,3.5,2,5.1,3.2c1.6,1.2,3.2,2.4,4.8,3.6c3.1,2.4,6.1,4.9,9.1,7.3c2.9,2.4,5.8,4.8,8.6,7.2l1,0.9l0.4,0.3l0.5,0.3
			c0.6,0.3,1.3,0.6,2,0.8c1.5,0.4,3.1,0.6,4.7,0.6c3.3,0.1,6.6-0.3,9.7-0.7c3.2-0.4,6.3-0.9,9.3-1.4c1.5-0.2,3-0.4,4.5-0.6
			c0.7-0.1,1.4-0.2,2.2-0.3c0.3,0,0.8-0.1,1.2-0.1c0.4,0,0.8-0.1,1.2-0.1c3.1,0,6,0.8,8.4,2c2.4,1.1,4.4,2.5,6.1,3.9
			c1.7,1.4,3.2,2.8,4.4,4.2c2.4,2.7,4.1,5,5.1,6.6c1,1.6,1.5,2.5,1.5,2.5L141,126.6z"/>
		<path d="M286.3,126.4c0,0,0.5-0.9,1.5-2.5c1-1.6,2.6-3.9,5.1-6.6c1.2-1.3,2.6-2.8,4.4-4.2c1.7-1.4,3.7-2.8,6.1-3.9
			c1.2-0.6,2.5-1.1,3.9-1.4c1.4-0.4,2.9-0.6,4.4-0.6c0.8,0,1.6,0.1,2.3,0.1c0.7,0.1,1.4,0.2,2.1,0.3c1.4,0.2,2.9,0.4,4.4,0.6
			c3,0.5,6.1,1,9.3,1.4c3.2,0.4,6.5,0.8,9.7,0.8c1.6,0,3.2-0.1,4.7-0.5c0.7-0.2,1.4-0.4,2.1-0.8c0.6-0.3,1.1-0.7,1.9-1.3
			c2.7-2.3,5.5-4.9,8.3-7.4c2.8-2.5,5.8-5.1,8.9-7.6c1.6-1.2,3.2-2.4,4.9-3.4c0.9-0.5,1.8-1,2.8-1.4c1-0.4,1.9-0.6,2.9-0.9
			c2-0.5,4.1-0.8,6.2-0.7c1.1,0.1,2.1,0.3,3.2,0.7c0.5,0.2,1,0.5,1.5,0.9c0.5,0.4,0.9,1,1.1,1.5c0.2,0.5,0.4,0.9,0.6,1.4
			c0.2,0.5,0.4,1.1,0.5,1.7c0.2,1.2,0,2.3-0.3,3.4c-0.6,2.1-1.5,4-2.5,5.8c-0.5,0.9-1,1.8-1.5,2.7l-0.8,1.3l-0.7,1.3
			c-0.5,0.9-0.9,1.7-1.4,2.6c-0.4,0.9-0.8,1.8-1.2,2.6c-1.4,3.6-2.4,7.3-2.9,11.1c-0.5,3.8-0.7,7.6-0.7,11.5c0,1.9,0,3.8,0,5.9
			c-0.1,2.1-0.3,4.1-0.6,6.1c-0.3,2-0.8,3.9-1.4,5.9c-0.6,1.9-1.4,3.7-2.4,5.5c-1.9,3.5-4.4,6.7-7.5,9c-0.8,0.6-1.6,1.1-2.4,1.6
			c-0.4,0.3-0.8,0.4-1.3,0.7c-0.4,0.2-0.7,0.4-1.2,0.6c-1.8,0.8-3.5,1.3-5.2,1.7c-3.4,0.8-6.7,1.1-9.7,1.4c-3,0.3-5.9,0.4-8.5,0.9
			c-1.3,0.2-2.5,0.5-3.6,0.8c-0.5,0.2-1.1,0.4-1.6,0.6c-0.2,0.1-0.5,0.2-0.8,0.4c-0.3,0.1-0.5,0.3-0.8,0.4c-2,1.2-3.9,2.5-5.9,3.6
			c-1.9,1.1-3.9,1.9-5.7,2.4c-3.7,0.8-6.6,0.4-8.5,0.2c-1-0.2-1.7-0.3-2.2-0.4c-0.5-0.1-0.7-0.2-0.7-0.2l0.1-0.5c0,0,0.3,0,0.7,0
			c0.5,0,1.2,0,2.1,0c1.9,0,4.7-0.1,7.8-1.3c1.6-0.6,3.2-1.5,4.8-2.7c1.6-1.2,3.4-2.7,5.5-4.2c0.3-0.2,0.5-0.4,0.8-0.6
			c0.3-0.2,0.5-0.4,0.9-0.5c0.6-0.4,1.3-0.7,2-1c1.4-0.6,2.8-0.9,4.2-1.3c2.8-0.6,5.8-1,8.8-1.4c3-0.4,6-0.8,9-1.7
			c1.5-0.4,2.9-0.9,4.2-1.5c0.3-0.1,0.7-0.4,1.1-0.5c0.2-0.1,0.6-0.4,0.9-0.6c0.6-0.4,1.3-0.8,1.9-1.3c2.4-1.9,4.5-4.4,6-7.4
			c1.6-2.9,2.7-6.2,3.4-9.7c0.3-1.7,0.6-3.6,0.7-5.3c0.1-1.8,0.1-3.8,0.2-5.8c0.2-4,0.4-8,1.2-12.1c0.7-4.1,2-8.1,3.9-11.9
			c0.5-0.9,1-1.9,1.5-2.8c0.6-0.9,1.1-1.8,1.7-2.6l0.9-1.3l0.9-1.2c0.6-0.8,1.1-1.6,1.7-2.5c1.1-1.7,2-3.4,2.6-5.1
			c0.3-0.9,0.5-1.7,0.5-2.6c0-0.4-0.1-0.8-0.2-1.2c-0.1-0.4-0.4-0.9-0.5-1.4c-0.5-1.4-2.5-2.1-4.3-2.3c-1.9-0.2-3.8,0.1-5.7,0.6
			c-0.9,0.2-1.9,0.5-2.7,0.9c-0.9,0.4-1.7,0.8-2.5,1.3c-1.6,1-3.1,2.2-4.6,3.5c-2.9,2.5-5.5,5.3-8.1,8.1c-2.6,2.8-5,5.6-7.7,8.2
			c-0.6,0.6-1.5,1.4-2.4,2c-0.9,0.6-1.9,1-2.9,1.3c-2,0.6-3.9,0.8-5.7,0.9c-3.7,0.1-7.2-0.3-10.5-0.8c-3.3-0.5-6.4-1.1-9.4-1.6
			c-1.5-0.3-2.9-0.5-4.4-0.8c-0.7-0.1-1.4-0.2-2.1-0.4c-0.6-0.1-1.2-0.2-1.8-0.2c-2.4-0.1-4.8,0.4-6.9,1.2
			c-4.3,1.7-7.7,4.3-10.3,6.6c-2.6,2.3-4.5,4.3-5.8,5.7c-1.3,1.4-1.9,2.2-1.9,2.2L286.3,126.4z"/>
		<path d="M131.3,145.1c0,0,0,0.1,0,0.3c0,0.2,0,0.4,0,0.7c0,0.6-0.1,1.4-0.3,2.3c-0.1,0.4-0.2,0.9-0.5,1.4c-0.2,0.5-0.6,0.9-1,1.4
			c-0.4,0.5-0.7,1-0.8,1.7c-0.1,0.6-0.1,1.2,0,1.9c0.1,0.6,0.3,1.3,0.3,1.9c0,0.6,0.1,1.2,0.1,1.8c0,0.6,0,1.1,0,1.6
			c-0.1,0.5-0.1,1-0.2,1.5c-0.1,0.5-0.2,0.9-0.3,1.3c-0.1,0.4-0.2,0.7-0.3,1c-0.2,0.6-0.4,0.9-0.4,0.9l-0.3,0c0,0-0.2-0.3-0.5-0.8
			c-0.1-0.3-0.3-0.6-0.5-1c-0.2-0.4-0.3-0.8-0.4-1.3c-0.1-0.5-0.2-1-0.3-1.6c0-0.6,0-1.2,0.1-1.8c0.1-0.6,0.2-1.2,0.4-1.9
			c0.2-0.6,0.4-1.3,0.8-1.9c0.3-0.6,0.6-1.2,0.7-1.8c0.2-0.6,0.2-1.2,0.1-1.9c-0.1-0.6-0.1-1.3,0-1.8c0.1-0.6,0.3-1,0.6-1.5
			c0.2-0.4,0.5-0.8,0.8-1.1c0.3-0.3,0.5-0.6,0.8-0.8c0.2-0.2,0.4-0.3,0.6-0.4c0.2-0.1,0.2-0.1,0.2-0.1L131.3,145.1z"/>
		<path d="M127.7,154.2c0,0-0.5,0.7-1.6,2c-1.1,1.3-2.6,3.1-4.9,5.3c-1.1,1.1-2.4,2.3-4,3.4c-1.6,1.2-3.8,2.1-6.2,2.4
			c-2.4,0.3-5.2,0-7.6-1.4c-1.2-0.7-2.4-1.6-3.3-2.7c-0.3-0.3-0.5-0.5-0.7-0.8c-0.2-0.3-0.5-0.6-0.6-0.8c-0.4-0.5-0.7-1-1.1-1.5
			c-1.6-2-3.4-3.9-5.3-5.7c-2-1.8-4.1-3.7-6.4-4.8c-0.5-0.3-1.1-0.5-1.6-0.6c-0.1,0-0.2-0.1-0.3-0.1l-0.3,0l-0.2,0
			c-0.2,0-0.6,0-0.9,0c-1.3,0.1-2.9,0.3-4.5,0.5c-1.6,0.2-3.3,0.4-5.1,0.2c-1.8-0.1-3.8-0.6-5.4-1.9c-0.4-0.3-0.7-0.6-1.1-1.1
			c-0.3-0.3-0.5-0.6-0.8-1c-0.5-0.8-1-1.5-1.4-2.3c-0.8-1.6-1.4-3.2-1.9-4.9c-0.9-3.4-1.4-6.8-1.7-10.2c-0.2-1.7-0.3-3.5-0.4-5.2
			c0-0.4-0.1-0.9-0.1-1.3l-0.2-1.2c-0.1-0.8-0.3-1.7-0.5-2.5c-0.4-1.6-1-3.2-1.7-4.8c-0.7-1.6-1.4-3.1-2.2-4.6l-2.5-4.6
			c-0.4-0.8-0.8-1.6-1.2-2.5c-0.2-0.4-0.4-0.9-0.5-1.3c0-0.1-0.1-0.3-0.1-0.4l-0.1-0.3L51.2,99c0-0.2,0-0.3,0-0.7
			c0-0.1,0.1-0.4,0.3-0.7c0.1-0.2,0.7-0.8,1.1-0.9c0.4-0.1,1-0.1,1.1,0c0.2,0,0.4,0.1,0.5,0.2c0.1,0,0.2,0.1,0.3,0.1l0.2,0.1
			c0.4,0.3,0.5,0.5,0.8,0.6c0.2,0.2,0.4,0.4,0.5,0.5c0.3,0.4,0.6,0.7,0.9,1c0.6,0.7,1.1,1.4,1.7,2c1.1,1.4,2.1,2.7,3.2,4.1
			c2.1,2.7,4.2,5.4,6.4,7.7c0.3,0.3,0.5,0.6,0.8,0.8l0.4,0.4l0.2,0.2l0,0c0,0-0.1-0.1,0,0l0.1,0.1c0.3,0.2,0.7,0.5,1,0.8l0.8,0.5
			c1.2,0.7,2.6,1.4,4,1.9c2.8,1.1,5.8,1.8,8.7,2.2c1.4,0.2,2.9,0.3,4.1,0.2c0.3,0,0.7,0,0.9-0.1c0.3,0,0.5-0.1,0.9-0.2
			c0.8-0.2,1.5-0.3,2.3-0.5c3.1-0.6,6.4-0.8,9.6-0.1c3.2,0.6,6.1,2.2,8.3,4.1c1.1,1,2.1,2,2.9,3.1c0.8,1.1,1.5,2.2,2.1,3.3
			c1.2,2.3,2,4.4,2.9,6.3c1.7,4,2.9,7.5,4,10.3c0.5,1.4,1.1,2.6,1.6,3.6c0.5,1,1.2,1.7,1.8,2.1c0.6,0.5,1.1,0.8,1.5,0.9l0.9,0.4
			L127.7,154.2z M127,154.1c-0.1,0-0.1,0-0.2,0c-0.4-0.1-1-0.3-1.8-0.7c-0.8-0.4-1.6-1.1-2.4-2.1c-0.8-1-1.5-2.2-2.3-3.6
			c-0.7-1.4-1.5-2.9-2.3-4.5c-0.8-1.6-1.8-3.4-2.7-5.3c-1-1.8-2.1-3.9-3.3-5.7c-1.2-1.9-2.7-3.7-4.5-5c-1.8-1.4-3.9-2.4-6.3-2.7
			c-2.4-0.4-5-0.1-7.7,0.5c-0.7,0.2-1.4,0.3-2.2,0.5c-0.3,0.1-0.9,0.2-1.3,0.2c-0.5,0.1-0.9,0.1-1.4,0.1c-1.8,0.1-3.5,0-5.2-0.2
			c-3.4-0.5-6.7-1.4-9.9-2.7c-1.6-0.7-3.2-1.5-4.8-2.5l-1.2-0.9c-0.4-0.3-0.7-0.5-1-0.8l-0.1-0.1l-0.1-0.1l-0.1-0.1l-0.3-0.3
			l-0.5-0.5c-0.3-0.3-0.6-0.7-0.9-1c-2.3-2.7-4.3-5.5-6.3-8.3c-1-1.4-2-2.8-3-4.2l-1.5-2.1c-0.2-0.3-0.5-0.7-0.7-1l-0.4-0.4
			c-0.1-0.1-0.2-0.3-0.2-0.2l0,0c0,0,0.1,0,0.1,0.1c0,0,0.2,0.1,0.3,0.1c0,0,0.6,0.1,0.9,0c0.4-0.1,1-0.6,1-0.8
			c0.2-0.3,0.2-0.5,0.2-0.6c0-0.3,0-0.2,0-0.3c0,0,0,0,0,0l0,0.1c0,0.1,0,0.1,0,0.2c0.1,0.4,0.2,0.8,0.3,1.1
			c0.3,0.8,0.5,1.6,0.9,2.4l2,4.8c1.3,3.3,2.5,6.7,3.2,10.2c0.8,3.5,0.7,7.1,1,10.4c0.3,3.4,0.9,6.7,2,9.8c0.5,1.5,1.2,3,2.1,4.3
			c0.4,0.7,0.9,1.3,1.4,1.8c0.2,0.3,0.6,0.6,0.8,0.9c0.2,0.2,0.5,0.4,0.7,0.6c2.2,1.4,5.2,0.8,8.2,0.1c1.5-0.3,3-0.7,4.8-0.9
			c0.4,0,0.9-0.1,1.4-0.1l0.4,0l0.3,0c0.3,0,0.5,0.1,0.8,0.1c1,0.2,1.9,0.5,2.7,0.9c1.6,0.8,2.9,1.7,4.1,2.6c1.2,1,2.4,2,3.4,3
			c2.1,2.1,4,4.2,5.6,6.4c0.4,0.5,0.8,1.1,1.2,1.7c0.2,0.3,0.4,0.5,0.5,0.7c0.2,0.2,0.3,0.4,0.5,0.6c0.7,0.8,1.4,1.5,2.3,2
			c1.6,1,3.5,1.5,5.4,1.4c1.8-0.1,3.6-0.6,5-1.4c1.5-0.8,2.9-1.8,4.1-2.7c2.4-1.8,4.3-3.3,5.5-4.4
			C126.2,154.8,126.7,154.4,127,154.1z"/>
		<path d="M294,148.9c0,0,0.1,0,0.2,0.1c0.2,0.1,0.4,0.2,0.6,0.4c0.2,0.2,0.5,0.5,0.8,0.8c0.3,0.3,0.5,0.7,0.8,1.1
			c0.2,0.4,0.5,0.9,0.6,1.5c0.1,0.6,0.1,1.2,0,1.8c0,0.6,0,1.3,0.1,1.9c0.2,0.6,0.4,1.2,0.7,1.8c0.3,0.6,0.6,1.2,0.8,1.9
			c0.2,0.6,0.3,1.3,0.4,1.9c0.1,0.6,0.1,1.2,0.1,1.8c0,0.6-0.1,1.1-0.3,1.6c-0.1,0.5-0.2,0.9-0.4,1.3c-0.2,0.4-0.3,0.7-0.5,1
			c-0.3,0.5-0.5,0.8-0.5,0.8l-0.3,0c0,0-0.2-0.3-0.4-0.9c-0.1-0.3-0.2-0.6-0.3-1c-0.1-0.4-0.2-0.8-0.3-1.3c-0.1-0.5-0.1-1-0.2-1.5
			c-0.1-0.5-0.1-1.1,0-1.6c0-0.6,0.1-1.2,0.1-1.8c0-0.6,0.2-1.2,0.3-1.9c0.1-0.6,0.1-1.3,0-1.9c-0.1-0.6-0.4-1.2-0.8-1.7
			c-0.4-0.5-0.8-1-1-1.4c-0.2-0.5-0.3-1-0.5-1.4c-0.2-0.9-0.3-1.7-0.3-2.3c0-0.3,0-0.5,0-0.7c0-0.2,0-0.3,0-0.3L294,148.9z"/>
		<path d="M298,158.1c0.3,0.3,0.8,0.7,1.6,1.3c1.3,1.1,3.1,2.6,5.6,4.4c1.2,0.9,2.6,1.9,4.1,2.7c0.4,0.2,0.8,0.4,1.2,0.5
			c0.2,0.1,0.4,0.2,0.6,0.2c0.2,0.1,0.5,0.1,0.7,0.2c0.8,0.2,1.7,0.4,2.7,0.4c1.9,0.1,3.7-0.4,5.4-1.5c0.8-0.6,1.6-1.3,2.2-2.1
			c0.3-0.4,0.6-0.9,1-1.4c0.4-0.6,0.8-1.1,1.2-1.7c1.7-2.2,3.6-4.3,5.7-6.4c1.1-1,2.2-2,3.5-3c1.3-0.9,2.6-1.8,4.3-2.5
			c0.9-0.3,1.8-0.6,2.9-0.7c0.3,0,1,0,1.4,0c0.5,0,0.9,0.1,1.3,0.1c1.7,0.3,3.2,0.7,4.7,1c3,0.6,6,1.1,8.1-0.6c2.2-2,3.8-4.9,4.8-8
			c1-3.2,1.5-6.6,1.8-10c0.2-1.7,0.1-3.4,0.3-5.3c0.2-1.8,0.6-3.6,1.1-5.3c1-3.4,2.4-6.8,3.7-10c0.7-1.6,1.3-3.3,1.9-4.9
			c0.3-0.8,0.5-1.6,0.6-2.3c0.1-0.3,0-0.6,0-0.6c0,0,0,0.1,0.1,0.3c0.1,0.1,0.2,0.1,0.2,0.2c0.1,0-0.1,0,0.2,0.1l-0.1,0
			c-0.1,0,0.1,0,0.1,0c0.1,0,0.2,0,0.2,0c0.4,0,0.4-0.1,0.4,0c0,0-0.1,0.1-0.2,0.2c-0.2,0.2-0.4,0.5-0.7,0.8c-0.5,0.6-0.9,1.3-1.3,2
			c-0.9,1.4-1.7,2.9-2.6,4.4c-1.7,3-3.4,6-5.6,9c-2.1,3.1-5.7,5.4-8.9,6.8c-3.3,1.5-6.6,2.4-10,2.9c-1.7,0.2-3.4,0.4-5.2,0.4
			c-0.9,0-1.8-0.1-2.7-0.3c-0.8-0.2-1.5-0.3-2.3-0.5c-2.8-0.6-5.4-0.9-7.9-0.6c-2.4,0.3-4.6,1.2-6.5,2.6c-1.9,1.4-3.4,3.1-4.6,5
			c-1.2,1.8-2.3,3.9-3.3,5.8c-2,3.8-3.7,7.1-5.1,9.9c-0.8,1.4-1.5,2.6-2.3,3.6c-0.8,1-1.7,1.7-2.4,2.2c-0.8,0.4-1.4,0.6-1.8,0.7
			C298.1,158.1,298.1,158.1,298,158.1z M297.4,157.8c0,0,0.2-0.1,0.6-0.3c0.4-0.2,0.9-0.5,1.5-1c0.6-0.5,1.2-1.2,1.8-2.2
			c0.6-1,1.1-2.2,1.6-3.6c1.1-2.9,2.3-6.4,4-10.4c0.4-1,0.9-2,1.3-3.1c0.4-1,1-2.2,1.6-3.3c1.3-2.2,2.9-4.5,5.2-6.5
			c2.3-1.9,5.3-3.4,8.5-4c3.2-0.6,6.6-0.3,9.7,0.3c0.8,0.1,1.5,0.3,2.2,0.4c0.3,0,0.6,0.1,0.9,0.1l1,0c1.3,0,2.8-0.1,4.2-0.3
			c2.9-0.4,5.9-1.3,8.7-2.4c0.7-0.3,1.4-0.6,2.1-0.9c0.6-0.3,1.3-0.7,1.9-1.1l0.4-0.3l0.5-0.4l0.5-0.4c0.1-0.1-0.1,0.1,0,0l0,0
			l0.1-0.1l0.2-0.2c0.5-0.5,1-1,1.5-1.7c2-2.5,3.8-5.4,5.7-8.3c0.9-1.5,1.9-2.9,2.9-4.4c0.5-0.7,1.1-1.5,1.7-2.2
			c0.3-0.4,0.7-0.8,1.1-1.1c0.2-0.2,0.5-0.4,0.9-0.6c0.4-0.2,0.9-0.4,1.7-0.4c0.1,0,0.3,0,0.4,0.1c0.1,0,0.3,0.1,0.3,0.1l0.1,0
			c0.3,0.1,0.2,0.1,0.3,0.2c0.3,0.1,0.5,0.4,0.7,0.6c0.4,0.5,0.6,1.1,0.7,1.5c0.1,0.9,0,1.4-0.1,2c-0.3,1.1-0.6,1.9-1,2.8
			c-0.8,1.7-1.6,3.2-2.4,4.8c-1.6,3.1-3.2,6.2-4.4,9.5c-0.6,1.6-1,3.3-1.3,4.9c-0.2,1.6-0.2,3.4-0.4,5.2c-0.3,3.5-0.7,7-1.6,10.3
			c-0.9,3.4-2.2,6.7-4.7,9.5c-1.4,1.5-3.4,2.2-5.3,2.4c-1.8,0.2-3.6,0.1-5.2-0.1c-1.6-0.2-3.2-0.4-4.6-0.5c-0.3,0-0.7,0-1,0
			c-0.4,0-0.5,0-0.9,0.1c-0.4,0-0.9,0.2-1.5,0.5c-1.1,0.5-2.3,1.3-3.3,2.1c-1.1,0.8-2.1,1.7-3.1,2.6c-2,1.8-3.8,3.8-5.4,5.8
			c-0.4,0.5-0.8,1-1.2,1.5c-0.4,0.5-0.8,1.1-1.3,1.6c-1,1.1-2.1,2-3.3,2.8c-2.4,1.5-5.3,1.9-7.7,1.6c-1.2-0.1-2.3-0.4-3.4-0.8
			c-0.2-0.1-0.5-0.2-0.7-0.3c-0.3-0.1-0.5-0.3-0.8-0.4c-0.5-0.2-0.9-0.5-1.4-0.8c-1.6-1.1-2.9-2.3-4.1-3.4c-2.3-2.2-3.8-4.1-4.9-5.3
			l-1.8-2.3L297.4,157.8z"/>
		<g>
			<path d="M296.7,158.8c4.4,4.7,10.4,11.6,17.3,11.9c4.7,0.2,8.3-1.7,11.2-5.4c3.8-4.9,7.8-9.8,13.4-12.8c4.5-2.5,10,1.2,14.8,0.3
				c4.5-0.9,6.8-4.4,8.5-8.4c2-4.7,2.5-10.1,2.9-15.1c0.5-6.6,2.8-12.2,5.5-18.2c1.2-2.6,3.1-5.7,3-8.7c0-1.5-1.6-2.7-2.9-1.9
				c-2.4,1.3-3.9,4.5-5.3,6.7c-2.6,4.2-5,8.9-8.6,12.4c-4.3,4.2-11.7,5.8-17.4,6.2c-3.6,0.3-7.2-1-10.8-1.3
				c-9.6-0.8-15.8,5.8-19.8,13.8c-2.1,4.2-3.9,8.6-5.9,12.9c-1.2,2.6-2.6,4.6-5.3,5.6c-1.4,0.5-0.8,2.7,0.6,2.2
				c5.9-2.1,7.5-8.5,9.8-13.7c2.7-6,5.3-12.6,11-16.4c3.7-2.5,8.3-2.5,12.5-1.8c8.5,1.4,16.1,0.5,23.8-3.7
				c7.4-4.1,10.2-13.4,15.1-19.7c1.7-2.2,0.7,0.6,0.3,1.6c-0.8,2.3-2,4.6-3,6.8c-2,4.4-3.9,8.9-4.6,13.7c-0.9,6.3-0.7,12.4-3.3,18.4
				c-1.4,3.4-3.8,6-7.6,6.3c-2.6,0.2-5.2-0.7-7.7-1c-9.5-1.2-16.3,8.6-21.5,15.3c-7.6,9.7-18.9-2-24.3-7.8
				C297.3,156.1,295.7,157.7,296.7,158.8z"/>
		</g>
		<path fill="none" stroke="#000000" stroke-width="4" stroke-miterlimit="10" d="M130,114.4c0,0,28.9-34.9,83.3-34.9
			s84.9,33.6,84.9,33.6"/>
		<path fill="none" stroke="#000000" stroke-width="4" stroke-miterlimit="10" d="M109.3,177c0,0,16.2,70,106.4,70
			c91.2,0,101.1-65.4,101.1-65.4"/>
		<path d="M143.7,148.1c1.7-1.7,3.7-3,5.8-4.2c1.1-0.6,2.1-1.1,3.3-1.6c1.1-0.5,2.3-0.9,3.4-1.2c2.3-0.7,4.7-1.2,7.2-1.4
			c0.6-0.1,1.2-0.1,1.8-0.1c0.6,0,1.2,0,1.8,0c1.2,0,2.4,0.1,3.7,0.2c1.2,0.2,2.4,0.3,3.6,0.6c1.2,0.2,2.4,0.6,3.5,0.9
			c0.6,0.2,1.1,0.4,1.7,0.6c0.6,0.2,1.1,0.4,1.7,0.7l1.6,0.8l1.6,0.8c1.1,0.5,2.1,1.2,3.1,1.8c1,0.6,2,1.3,3,2l2.9,2.1l2.8,2.2
			l-0.5-0.1c1.5-0.6,3-1,4.5-1.4c1.5-0.4,3-0.8,4.6-1.2c1.5-0.4,3.1-0.7,4.6-0.9c1.6-0.3,3.1-0.5,4.7-0.6c0.8-0.1,1.6-0.1,2.4-0.2
			c0.8,0,1.6-0.1,2.4,0c0.8,0,1.6,0.1,2.4,0.1c0.8,0.1,1.6,0.1,2.4,0.3c0.8,0.1,1.6,0.3,2.4,0.5c0.8,0.2,1.6,0.4,2.4,0.7
			c0.8,0.3,1.5,0.6,2.3,1c0.8,0.4,1.5,0.8,2.2,1.2l-1.7,0.2c0.9-1,1.8-1.7,2.8-2.5c1-0.8,2-1.5,3-2.2c1-0.7,2.1-1.3,3.2-1.9
			c1.1-0.6,2.2-1.1,3.3-1.6c0.6-0.3,1.1-0.5,1.7-0.7c0.6-0.2,1.2-0.4,1.8-0.6c0.6-0.2,1.2-0.4,1.8-0.5c0.6-0.2,1.2-0.3,1.8-0.4
			c1.2-0.3,2.4-0.4,3.7-0.6l1.8-0.2c0.6,0,1.2,0,1.8-0.1c0.6,0,1.2,0,1.8,0c0.6,0,1.2,0,1.8,0.1l1.8,0.2l1.8,0.3
			c1.2,0.2,2.4,0.5,3.6,0.8c1.2,0.3,2.4,0.6,3.5,1.1c0.6,0.2,1.1,0.4,1.7,0.6l1.7,0.7c1.1,0.5,2.2,1,3.3,1.6
			c1.1,0.6,2.1,1.2,3.1,1.8c1,0.6,2,1.3,3,2l-0.2,0.3c-1.1-0.5-2.2-1-3.2-1.5c-1.1-0.4-2.2-0.9-3.3-1.3c-1.1-0.4-2.2-0.9-3.3-1.2
			l-1.7-0.5c-0.6-0.2-1.1-0.3-1.7-0.4c-1.1-0.3-2.3-0.5-3.4-0.8c-1.1-0.2-2.3-0.4-3.4-0.5l-1.7-0.2l-1.7-0.1c-0.6,0-1.1,0-1.7,0
			c-0.6,0-1.1,0-1.7,0c-0.6,0-1.1,0.1-1.7,0.1l-1.7,0.2c-1.1,0.2-2.3,0.4-3.4,0.6c-0.6,0.1-1.1,0.3-1.7,0.4
			c-0.6,0.1-1.1,0.3-1.6,0.5c-0.5,0.2-1.1,0.3-1.6,0.5c-0.5,0.2-1.1,0.4-1.6,0.6c-1.1,0.4-2.1,0.9-3.1,1.4c-1,0.5-2,1.1-3,1.6
			c-1,0.6-1.9,1.2-2.9,1.9c-0.9,0.7-1.8,1.4-2.6,2.1l-0.8,0.8l-0.9-0.6c-0.6-0.4-1.2-0.8-1.8-1.2c-0.6-0.4-1.3-0.7-2-1
			c-0.7-0.3-1.4-0.5-2.1-0.8c-0.7-0.2-1.4-0.4-2.2-0.6c-2.9-0.7-6-0.9-9.1-0.8c-1.5,0-3.1,0.1-4.6,0.3c-1.5,0.2-3.1,0.4-4.6,0.7
			c-3,0.6-6.1,1.5-8.9,2.6l-0.2,0.1l-0.2-0.2l-2.8-2.1c-1-0.6-2-1.3-3-1.9c-1-0.6-2-1.2-3.1-1.7c-1-0.5-2.1-1-3.2-1.5l-1.6-0.7
			l-1.6-0.6c-1.1-0.4-2.2-0.7-3.3-1.1c-1.1-0.3-2.2-0.6-3.3-0.8c-1.1-0.3-2.2-0.4-3.4-0.6c-1.1-0.1-2.3-0.3-3.4-0.3
			c-0.6,0-1.1,0-1.7,0c-0.6,0-1.1,0-1.7,0c-1.1,0-2.3,0.1-3.4,0.3c-1.1,0.2-2.3,0.3-3.4,0.6c-1.1,0.3-2.2,0.6-3.3,0.9
			c-1.1,0.3-2.2,0.8-3.3,1.2c-1.1,0.4-2.1,0.9-3.2,1.5c-1,0.6-2.1,1.1-3,1.8L143.7,148.1z"/>
		<path d="M195.7,152.9c0,0-0.6-1-1.3-2.8c-0.4-0.9-0.9-2-1.3-3.3c-0.5-1.3-1-2.7-1.5-4.3c-0.5-1.6-1-3.3-1.4-5.2
			c-0.4-1.9-0.6-3.9-0.8-6c-0.2-2.1-0.5-4.2-1-6.3c-0.5-2.1-1.1-4.3-1.8-6.4c-0.7-2.1-1.4-4.2-1.9-6.4c-0.5-2.1-1-4.2-1.5-6.2
			c-1-4-1.8-7.6-2.7-10.8c-0.4-1.6-0.8-3-1.2-4.3c-0.4-1.3-0.6-2.4-0.9-3.4c-0.5-1.9-0.7-3-0.7-3l0.3-0.1c0,0,0.7,0.9,1.7,2.6
			c0.5,0.8,1.1,1.9,1.8,3.1c0.7,1.2,1.3,2.6,2,4.1c0.6,1.6,1.3,3.3,1.9,5.1c0.6,1.9,1.1,3.9,1.4,5.9c0.4,2.1,0.7,4.2,1,6.4
			c0.3,2.2,0.5,4.4,0.7,6.6c0.2,2.2,0.5,4.4,0.9,6.5c0.4,2.1,1.1,4.2,1.8,6.1c0.7,2,1.5,3.8,2,5.7c0.5,1.8,0.9,3.6,1.2,5.2
			c0.3,1.6,0.6,3.1,0.8,4.5c0.2,1.3,0.4,2.5,0.5,3.5c0.2,1.9,0.2,3.1,0.2,3.1L195.7,152.9z"/>
		<path d="M232.8,152.8c0,0,0-1.1,0.2-3.1c0.1-1,0.2-2.2,0.5-3.5c0.2-1.3,0.5-2.8,0.8-4.5c0.3-1.6,0.7-3.4,1.2-5.2
			c0.5-1.8,1.3-3.7,2-5.7c0.7-2,1.4-4,1.8-6.1c0.5-2.1,0.7-4.3,0.9-6.5c0.2-2.2,0.3-4.4,0.7-6.6c0.3-2.2,0.6-4.3,1-6.4
			c0.4-2.1,0.8-4.1,1.4-5.9c0.6-1.9,1.3-3.6,1.9-5.1c0.7-1.5,1.3-3,2-4.1c0.6-1.2,1.2-2.2,1.8-3.1c1-1.7,1.7-2.6,1.7-2.6l0.3,0.1
			c0,0-0.2,1.1-0.7,3c-0.3,0.9-0.5,2.1-0.9,3.4c-0.3,1.3-0.7,2.7-1.2,4.3c-0.8,3.2-1.6,6.8-2.7,10.8c-0.5,2-1,4.1-1.5,6.2
			c-0.5,2.1-1.2,4.2-1.9,6.4c-0.7,2.1-1.3,4.2-1.8,6.4c-0.5,2.1-0.8,4.3-1,6.3c-0.2,2.1-0.4,4.1-0.8,6c-0.4,1.9-0.9,3.6-1.4,5.2
			c-0.5,1.6-1,3-1.5,4.3c-0.5,1.3-0.9,2.4-1.3,3.3c-0.8,1.8-1.3,2.8-1.3,2.8L232.8,152.8z"/>
		<path d="M213.8,149c0,0-0.3-1.1-0.6-3c-0.3-1.9-0.7-4.6-0.9-7.8c-0.1-1.6-0.2-3.4-0.1-5.2c0.1-1.9,0.4-3.8,0.7-5.8
			c0.3-2,0.5-4.1,0.5-6.2c0-2.1-0.2-4.3-0.5-6.4c-0.3-2.2-0.6-4.3-0.7-6.4c-0.1-2.1-0.2-4.2-0.3-6.2c-0.1-2-0.1-4,0-5.8
			c0.1-1.9,0.2-3.6,0.3-5.2c0.2-1.6,0.3-3.1,0.5-4.4c0.2-1.3,0.3-2.5,0.5-3.4c0.3-1.9,0.6-3,0.6-3h0.4c0,0,0.3,1.1,0.6,3
			c0.2,0.9,0.3,2.1,0.5,3.4c0.2,1.3,0.3,2.8,0.5,4.4c0.1,1.6,0.3,3.4,0.3,5.2c0.1,1.9,0.1,3.8,0,5.8c-0.1,2-0.2,4.1-0.3,6.2
			c-0.1,2.1-0.4,4.3-0.7,6.4c-0.3,2.2-0.5,4.3-0.5,6.4c0,2.1,0.2,4.2,0.5,6.2c0.3,2,0.6,4,0.7,5.8c0.1,1.9,0,3.6-0.1,5.2
			c-0.2,3.2-0.5,5.9-0.9,7.8c-0.3,1.9-0.6,3-0.6,3H213.8z"/>
		<path d="M148.3,125.5c1.4-1.3,3-2.5,4.6-3.5c1.6-1,3.4-2,5.2-2.8c0.9-0.4,1.8-0.7,2.7-1.1c0.9-0.3,1.9-0.6,2.8-0.8
			c1-0.2,1.9-0.4,2.9-0.5c1-0.1,2-0.2,3-0.2c1,0,2,0,3,0.1c0.5,0,1,0.1,1.5,0.2c0.5,0.1,1,0.1,1.5,0.2l1.5,0.3l1.4,0.4
			c0.5,0.1,1,0.3,1.4,0.5c0.5,0.2,0.9,0.3,1.4,0.6c0.9,0.4,1.8,0.8,2.7,1.3c0.9,0.5,1.7,1,2.6,1.6c0.9,0.5,1.6,1.2,2.4,1.8
			c0.8,0.6,1.5,1.3,2.3,2l-1.8,0c0.5-0.4,0.9-0.8,1.4-1.1c0.5-0.3,1-0.7,1.5-1c1-0.6,2-1.2,3.1-1.7c1.1-0.5,2.2-0.9,3.4-1.2
			c0.6-0.2,1.2-0.3,1.8-0.4c0.6-0.1,1.2-0.2,1.8-0.2c0.6,0,1.2,0,1.9,0c0.6,0.1,1.2,0.1,1.9,0.3c0.6,0.1,1.2,0.3,1.8,0.5
			c0.6,0.2,1.2,0.5,1.7,0.7c0.5,0.3,1.1,0.6,1.6,1c0.5,0.4,1,0.7,1.5,1.1c0.5,0.4,0.9,0.8,1.3,1.3c0.4,0.4,0.8,0.9,1.2,1.4l-2.1-0.3
			c0.5-0.4,1-0.7,1.6-1c0.5-0.3,1.1-0.6,1.6-0.9c1.1-0.6,2.2-1.1,3.3-1.5c1.1-0.4,2.3-0.8,3.5-1.1c0.6-0.1,1.2-0.2,1.8-0.3
			c0.6-0.1,1.3-0.1,1.9-0.1c0.6,0,1.3,0,1.9,0.1c0.6,0.1,1.3,0.2,1.9,0.4c0.3,0.1,0.6,0.2,0.9,0.3l0.9,0.4c0.6,0.3,1.2,0.6,1.7,1
			c0.6,0.4,1,0.8,1.5,1.2c0.4,0.5,0.9,0.9,1.3,1.4c0.4,0.5,0.7,1,1.1,1.6c0.3,0.5,0.6,1.1,0.9,1.6l-2.2-0.3c0.7-0.8,1.4-1.4,2.2-2.1
			c0.7-0.6,1.5-1.3,2.3-1.8c1.6-1.1,3.3-2.2,5-3c3.5-1.7,7.5-2.8,11.4-2.7c2,0,3.9,0.3,5.8,0.8c1.9,0.5,3.7,1.3,5.4,2.3
			c0.8,0.5,1.6,1,2.4,1.6c0.8,0.6,1.5,1.2,2.3,1.8c1.5,1.2,2.8,2.6,4,4.1c-0.7-0.7-1.4-1.3-2.1-1.9c-0.7-0.6-1.5-1.2-2.2-1.7
			c-1.5-1.1-3.1-2.1-4.8-2.9c-3.3-1.6-7-2.5-10.7-2.3c-3.6,0.2-7.2,1.3-10.4,3c-1.6,0.9-3.1,1.9-4.6,3c-0.7,0.6-1.4,1.2-2.1,1.8
			c-0.7,0.6-1.3,1.3-1.9,1.9l-1.2,1.4l-1-1.6c-0.3-0.5-0.5-0.9-0.8-1.4c-0.3-0.4-0.6-0.9-0.9-1.3c-0.3-0.4-0.7-0.8-1.1-1.1
			c-0.4-0.3-0.8-0.7-1.2-0.9c-0.4-0.3-0.9-0.5-1.3-0.7l-0.7-0.3l-0.7-0.2c-0.5-0.1-1-0.2-1.5-0.3c-0.5-0.1-1-0.1-1.5-0.1
			c-0.5,0-1,0.1-1.6,0.1c-0.5,0.1-1,0.2-1.6,0.3c-1,0.2-2.1,0.6-3.1,1c-1,0.4-2,0.9-3,1.4c-0.5,0.3-1,0.5-1.4,0.8
			c-0.5,0.3-1,0.6-1.3,0.9l-1.1,0.8l-0.9-1.1c-0.3-0.4-0.7-0.8-1-1.2c-0.4-0.4-0.7-0.7-1.1-1.1c-0.4-0.3-0.8-0.6-1.2-0.9
			c-0.4-0.3-0.8-0.5-1.3-0.8c-0.4-0.2-0.9-0.4-1.4-0.6c-0.5-0.2-0.9-0.3-1.4-0.4c-0.5-0.1-1-0.2-1.5-0.2c-0.5,0-1-0.1-1.5,0
			c-0.5,0-1,0.1-1.5,0.1c-0.5,0.1-1,0.2-1.5,0.3c-1,0.2-2,0.6-3,1c-1,0.4-1.9,0.9-2.8,1.5c-0.5,0.3-0.9,0.6-1.3,0.9
			c-0.4,0.3-0.9,0.6-1.2,0.9l-0.9,0.7l-0.9-0.8c-0.7-0.6-1.4-1.3-2.1-1.9c-0.7-0.6-1.4-1.2-2.2-1.7c-0.8-0.5-1.5-1.1-2.3-1.5
			c-0.8-0.5-1.6-0.9-2.4-1.3c-0.4-0.2-0.8-0.4-1.3-0.6c-0.4-0.2-0.9-0.4-1.3-0.5l-1.3-0.5l-1.3-0.4c-0.4-0.1-0.9-0.2-1.4-0.3
			c-0.5-0.1-0.9-0.2-1.4-0.2c-0.9-0.1-1.9-0.2-2.8-0.2c-0.9,0-1.9,0-2.8,0.1c-0.5,0-0.9,0.1-1.4,0.1c-0.5,0-0.9,0.1-1.4,0.2
			c-0.9,0.1-1.9,0.4-2.8,0.6c-0.9,0.2-1.8,0.5-2.7,0.8c-1.8,0.6-3.6,1.4-5.2,2.3C151.5,123.3,149.9,124.3,148.3,125.5z"/>
		<path d="M143.7,110.4c1.1-1.6,2.4-3.1,3.7-4.6c1.3-1.5,2.8-2.8,4.3-4.1c0.8-0.6,1.6-1.2,2.4-1.8c0.8-0.6,1.7-1.1,2.5-1.6
			c0.9-0.5,1.8-1,2.7-1.4c0.9-0.4,1.9-0.8,2.8-1.1c1-0.3,2-0.6,3-0.8c0.5-0.1,1-0.2,1.5-0.3c0.5-0.1,1-0.1,1.5-0.2
			c1-0.1,2.1-0.1,3.1,0c1,0.1,2.1,0.2,3.1,0.5c1,0.2,2,0.6,3,0.9c0.9,0.4,1.9,0.8,2.8,1.3c0.9,0.5,1.7,1.1,2.6,1.6
			c0.8,0.6,1.6,1.2,2.4,1.9l-1.2,0c0.6-0.5,1.1-0.9,1.7-1.3c0.6-0.4,1.2-0.8,1.8-1.2c1.2-0.7,2.5-1.4,3.7-2c0.6-0.3,1.3-0.6,1.9-0.8
			c0.7-0.2,1.3-0.5,2-0.7c0.7-0.2,1.4-0.4,2.1-0.5c0.7-0.1,1.4-0.2,2.1-0.3c0.7-0.1,1.4-0.1,2.1-0.1c0.4,0,0.7,0,1.1,0.1
			c0.4,0,0.7,0.1,1.1,0.1c0.7,0.1,1.4,0.3,2.1,0.5c0.7,0.2,1.4,0.5,2,0.8c0.3,0.1,0.6,0.3,1,0.5c0.3,0.2,0.6,0.3,0.9,0.6
			c0.6,0.4,1.2,0.8,1.7,1.3c0.6,0.5,1,1,1.5,1.5c0.5,0.5,0.9,1.1,1.4,1.6l-1.3-0.2c0.6-0.5,1.2-1,1.8-1.5c0.6-0.5,1.2-0.9,1.9-1.3
			c1.3-0.9,2.6-1.6,4-2.3c0.7-0.4,1.4-0.7,2.1-1c0.7-0.3,1.5-0.6,2.2-0.8c0.7-0.2,1.5-0.4,2.3-0.6c0.8-0.2,1.6-0.3,2.4-0.4
			c0.4-0.1,0.8-0.1,1.2-0.1c0.4,0,0.8,0,1.2,0c0.8,0,1.6,0.1,2.5,0.2l1.2,0.3l1.2,0.4c0.8,0.3,1.6,0.6,2.3,1
			c0.7,0.4,1.4,0.9,2.1,1.4c0.6,0.6,1.3,1.1,1.8,1.7c0.6,0.6,1.1,1.2,1.5,1.9c0.5,0.6,0.9,1.3,1.3,2l-2.6-0.3c0.7-0.7,1.3-1.3,2-1.9
			c0.7-0.6,1.4-1.1,2.1-1.6c0.7-0.5,1.5-1,2.3-1.4c0.8-0.4,1.6-0.8,2.4-1.1c0.8-0.3,1.7-0.6,2.6-0.8c0.9-0.2,1.8-0.3,2.7-0.4
			c0.9-0.1,1.8-0.1,2.7,0l1.3,0.2l1.3,0.3c0.9,0.2,1.7,0.5,2.5,0.9c0.8,0.3,1.6,0.8,2.4,1.2c0.7,0.5,1.5,0.9,2.2,1.5
			c0.7,0.5,1.3,1.1,2,1.7c0.6,0.6,1.2,1.2,1.8,1.8c0.5,0.7,1.1,1.3,1.6,2c0.5,0.7,1,1.4,1.5,2.1l1.3,2.2l-0.2,0.2l-1.6-1.9
			c-0.6-0.6-1.1-1.2-1.7-1.8c-0.6-0.6-1.2-1.2-1.8-1.7c-0.6-0.5-1.2-1.1-1.9-1.6c-0.7-0.5-1.3-1-2-1.4c-0.7-0.5-1.4-0.8-2.1-1.2
			c-0.7-0.3-1.4-0.7-2.2-0.9c-0.7-0.3-1.5-0.4-2.3-0.6l-1.1-0.2l-1.2-0.1c-0.8,0-1.5,0-2.3,0.1c-0.8,0.1-1.5,0.3-2.3,0.5
			c-0.7,0.2-1.5,0.5-2.2,0.8c-0.7,0.3-1.4,0.7-2.1,1c-0.7,0.4-1.3,0.8-2,1.3c-0.6,0.5-1.3,0.9-1.9,1.5c-0.6,0.5-1.2,1.1-1.6,1.6
			l-1.4,1.5l-1.2-1.8c-0.4-0.6-0.7-1.2-1.1-1.8c-0.4-0.5-0.8-1.1-1.3-1.6c-0.4-0.5-1-0.9-1.4-1.4c-0.5-0.4-1-0.8-1.6-1.2
			c-0.6-0.4-1.2-0.6-1.8-0.9l-0.9-0.3l-1-0.2c-0.7-0.1-1.3-0.2-2-0.3c-0.3,0-0.7,0-1,0c-0.3,0-0.7,0-1,0c-0.7,0-1.4,0.2-2.1,0.3
			c-0.7,0.1-1.4,0.3-2.1,0.5c-0.7,0.2-1.4,0.4-2,0.7c-0.7,0.2-1.3,0.5-2,0.8c-1.3,0.6-2.6,1.3-3.9,2c-0.6,0.4-1.3,0.7-1.9,1.1
			c-0.6,0.4-1.2,0.8-1.8,1.2l-0.8,0.6l-0.5-0.7c-0.4-0.5-0.7-1.1-1.2-1.6c-0.4-0.5-0.8-1-1.3-1.5c-0.5-0.5-1-0.9-1.5-1.3
			c-0.2-0.2-0.5-0.4-0.8-0.6c-0.3-0.2-0.5-0.4-0.8-0.5c-0.6-0.3-1.2-0.6-1.8-0.8c-0.6-0.2-1.3-0.4-1.9-0.5c-0.3-0.1-0.7-0.1-1-0.2
			c-0.3,0-0.7-0.1-1-0.1c-0.7,0-1.3,0-2,0c-0.7,0.1-1.3,0.2-2,0.3c-0.7,0.2-1.3,0.3-2,0.5c-1.3,0.4-2.5,1-3.7,1.6
			c-1.2,0.6-2.3,1.4-3.4,2.2c-0.5,0.4-1.1,0.8-1.6,1.3c-0.5,0.4-1,0.9-1.5,1.3l-0.5,0.5l-0.7-0.5c-0.8-0.5-1.5-1.1-2.4-1.5
			c-0.8-0.5-1.6-0.9-2.5-1.3c-0.8-0.4-1.7-0.7-2.6-1c-0.9-0.2-1.8-0.5-2.7-0.7c-0.9-0.2-1.8-0.3-2.7-0.4c-0.9,0-1.8-0.1-2.7,0
			c-0.5,0-0.9,0.1-1.4,0.1c-0.5,0.1-0.9,0.1-1.4,0.2c-0.9,0.2-1.8,0.4-2.7,0.6c-0.9,0.3-1.8,0.6-2.6,0.9c-0.9,0.4-1.7,0.7-2.6,1.2
			c-0.9,0.4-1.7,0.9-2.5,1.4c-0.8,0.5-1.6,1-2.4,1.5c-0.8,0.5-1.6,1.1-2.3,1.7c-0.8,0.6-1.5,1.2-2.3,1.8c-1.5,1.2-2.9,2.6-4.3,3.9
			L143.7,110.4z"/>
	</g>
</g>
<g id="mouth" display="none">
	<g display="inline">
		<path d="M198,223.5c0.7-0.8,1.5-1.5,2.2-2.3l0.2-0.1l0.3,0.1c1.1,0.5,2.2,0.9,3.4,1.3c1.2,0.4,2.3,0.7,3.5,0.9
			c1.2,0.3,2.4,0.4,3.6,0.5c1.2,0.1,2.4,0.2,3.6,0.2l0.4,0l0.2,0l0.2,0l0.9,0c0.6,0,1.2-0.1,1.8-0.1c1.2-0.1,2.4-0.2,3.5-0.5
			c0.6-0.1,1.2-0.2,1.7-0.4c0.6-0.1,1.1-0.3,1.7-0.5c0.6-0.2,1.1-0.4,1.7-0.6c0.5-0.2,1.1-0.5,1.6-0.8l0.3-0.2l0.2,0.1
			c0.9,0.7,1.7,1.4,2.6,2.1c-1-0.5-2-1-3-1.5l0.5,0c-0.5,0.5-1,0.8-1.5,1.2c-0.5,0.3-1.1,0.6-1.7,0.9c-0.6,0.3-1.2,0.5-1.8,0.7
			c-0.6,0.2-1.2,0.4-1.8,0.6c-1.2,0.3-2.5,0.6-3.8,0.7c-0.6,0-1.3,0.1-1.9,0.1l-0.9,0l-0.2,0l-0.3,0l-0.5,0c-1.3,0-2.5-0.1-3.8-0.3
			c-0.6-0.1-1.2-0.2-1.9-0.3c-0.6-0.2-1.2-0.3-1.8-0.5c-1.2-0.3-2.4-0.8-3.6-1.3c-1.2-0.5-2.3-1.1-3.3-1.9l0.4,0
			C199.8,222.4,198.9,223,198,223.5z"/>
	</g>
</g>
<g id="eyes_x5F_closed" display="none">
	<path display="inline" d="M158.1,199.9c0,0,1,0.9,2.8,1.7c0.4,0.2,1,0.4,1.5,0.6c0.5,0.1,1.1,0.3,1.7,0.4c0.6,0.1,1.2,0.2,1.9,0.2
		c0.6,0,1.3,0,1.9,0c0.6-0.1,1.3-0.2,1.9-0.3c0.6-0.2,1.2-0.3,1.8-0.5c0.6-0.2,1.1-0.4,1.7-0.5c0.5-0.2,1-0.4,1.5-0.5
		c0.2-0.1,0.5-0.1,0.7-0.2c0.2-0.1,0.4-0.2,0.6-0.2c0.4-0.1,0.7-0.2,1-0.3c0.6-0.2,0.9-0.2,0.9-0.2l0.1,0.2c0,0-0.2,0.3-0.7,0.7
		c-0.2,0.2-0.5,0.5-0.8,0.7c-0.3,0.3-0.7,0.6-1.2,0.8c-0.4,0.3-0.9,0.6-1.5,0.9c-0.6,0.2-1.2,0.5-1.8,0.7c-0.6,0.2-1.3,0.3-2,0.4
		c-0.7,0.1-1.4,0.1-2.1,0.1c-0.7-0.1-1.4-0.1-2.1-0.2c-0.7-0.1-1.4-0.2-2-0.4c-0.6-0.2-1.2-0.4-1.8-0.7c-0.5-0.3-1-0.5-1.5-0.8
		c-1.8-1.1-2.7-2.2-2.7-2.2L158.1,199.9z"/>
	<path display="inline" d="M273.1,200.1c0,0-0.9,1.1-2.7,2.2c-0.4,0.3-0.9,0.5-1.5,0.8c-0.6,0.2-1.1,0.5-1.8,0.7
		c-0.6,0.2-1.3,0.3-2,0.4c-0.7,0.1-1.4,0.1-2.1,0.2c-0.7,0-1.4,0-2.1-0.1c-0.7-0.1-1.4-0.2-2-0.4c-0.6-0.2-1.2-0.4-1.8-0.7
		c-0.5-0.3-1-0.6-1.5-0.9c-0.5-0.3-0.8-0.5-1.2-0.8c-0.3-0.3-0.6-0.5-0.8-0.7c-0.4-0.4-0.7-0.7-0.7-0.7l0.1-0.2c0,0,0.4,0.1,0.9,0.2
		c0.3,0.1,0.6,0.2,1,0.3c0.2,0.1,0.4,0.1,0.6,0.2c0.2,0.1,0.5,0.1,0.7,0.2c0.5,0.1,1,0.3,1.5,0.5c0.5,0.1,1.1,0.3,1.7,0.5
		c0.6,0.2,1.2,0.3,1.8,0.5c0.6,0.2,1.2,0.2,1.9,0.3c0.6,0,1.3,0.1,1.9,0c0.6,0,1.3-0.1,1.9-0.2c0.6-0.1,1.2-0.3,1.7-0.4
		c0.5-0.2,1-0.3,1.5-0.6c1.8-0.8,2.8-1.7,2.8-1.7L273.1,200.1z"/>
</g>
<g id="eyes_x5F_open">
	<g>
		<g>
			<ellipse cx="167.3" cy="200" rx="6.3" ry="8.9"/>
			<ellipse cx="263.3" cy="200" rx="6.3" ry="8.9"/>
		</g>
		<ellipse fill="#FFFFFF" cx="169.8" cy="196.2" rx="1.1" ry="1.7"/>
		<ellipse fill="#FFFFFF" cx="265.8" cy="196.2" rx="1.1" ry="1.7"/>
	</g>
</g>
</svg>
