<?xml version="1.0" encoding="utf-8"?>
<!-- Generator: Adobe Illustrator 18.0.0, SVG Export Plug-In . SVG Version: 6.00 Build 0)  -->
<!DOCTYPE svg PUBLIC "-//W3C//DTD SVG 1.1//EN" "http://www.w3.org/Graphics/SVG/1.1/DTD/svg11.dtd">

<svg version="1.1" xmlns="http://www.w3.org/2000/svg"
	x="0px" y="0px"
	viewBox="0 0 357.2 328.9"
	style="enable-background:new 0 0 357.2 328.9;"
	xml:space="preserve"
>

<style type="text/css">
	.st0{display:none;}
	.st1{display:inline;}
	.st2{display:inline;fill:#A8A439;stroke:#000000;stroke-width:3.2243;stroke-miterlimit:10;}
	.st3{display:inline;fill:#D8CA66;stroke:#000000;stroke-width:4;stroke-miterlimit:10;}
	.st4{display:inline;fill:#A8A439;stroke:#000000;stroke-width:3.316;stroke-miterlimit:10;}
	.st5{display:inline;fill:#A8A439;stroke:#000000;stroke-width:3.2159;stroke-miterlimit:10;}
	.st6{fill:#A8A439;stroke:#000000;stroke-width:3.2243;stroke-miterlimit:10;}
	.st7{fill:#D8CA66;stroke:#000000;stroke-width:4.2479;stroke-miterlimit:10;}
	.st8{fill:#382318;stroke:#000000;stroke-width:3.001;stroke-miterlimit:10;}
	.st9{fill:#A8A439;stroke:#000000;stroke-width:3;stroke-miterlimit:10;}
	.st10{fill:#D8CA66;}
	.st11{fill:#A8A439;}
	.st12{fill:#261315;stroke:#000000;stroke-width:3;stroke-miterlimit:10;}
	.st13{fill:#261315;stroke:#000000;stroke-width:3.064;stroke-miterlimit:10;}
	.st14{fill:#8C8734;}
	.st15{fill:none;stroke:#000000;stroke-width:4;stroke-miterlimit:10;}
	.st16{fill:#FFFFFF;}
</style>

<g id="armDown">
	<path class="st6" d="M282.8,245.6c0.4-0.9,0.5-2,0.5-3c0.1-4.3-2-16.4-7.2-17.9c-8.2-2.3-29.2,17.3-29.2,17.3
		c1.2,3.9,2.6,7.8,4.6,11.3c2.4,4.2,9,8.2,12.5,2.4c0.5-0.9,1-2,2-2.1c0.5-0.1,1,0.2,1.4,0.3c2,0.7,4.3,0.6,6-0.6
		c1.7-1.1,1.7-2.8,2.9-4.2c1.2-1.4,2.9-0.4,4.5-1.2C281.8,247.5,282.4,246.6,282.8,245.6z"/>
	<path class="st7" d="M217.8,245.5l-15.3-59.7l21.3-18.6c0,0,27.4,12.1,50.3,50.1C274.1,217.3,249,223.4,217.8,245.5z"/>
	<path class="st7" d="M217.6,246.7l-3.9-14.1c0,0,11-6,24.7-11c15-5.4,36-9.9,37.9-9c1.9,0.9,6.2,14.2,5.6,16.5
		c-0.7,2.4-17.1,4.7-33.8,8C233.7,239.9,217.6,246.7,217.6,246.7z"/>
</g>

<g id="armCane">
	<path class="st8" d="M76.9,316.7h-0.2c-3,0-5.4-1.4-5.4-4.4l-1-72.9c0-3,3.4-4.4,6.4-4.4h0.2c3,0,6.4,1.4,6.4,4.4l-1,72.9
		C82.3,315.3,79.9,316.7,76.9,316.7z"/>
	<path class="st6" d="M63.5,236.2c-0.3-1-0.4-2.1-0.3-3.1c0.2-4.3,3.2-16.2,8.5-17.3c8.3-1.6,27.8,19.5,27.8,19.5
		c-1.4,3.8-3.2,7.5-5.5,10.9c-2.7,4-9.6,7.5-12.6,1.4c-0.4-0.9-0.8-2-1.8-2.2c-0.5-0.1-1,0.1-1.5,0.2c-2,0.6-4.3,0.2-6-1
		c-1.6-1.2-1.5-2.9-2.5-4.4c-1.1-1.5-2.9-0.6-4.3-1.5C64.3,238.1,63.8,237.2,63.5,236.2z"/>
	<path class="st7" d="M123,245.9l27-55.4l-17.1-22.5c0,0-29.3,6.3-59.3,39C73.5,206.9,96.9,218,123,245.9z"/>
	<path class="st7" d="M123,247.1l6.7-13c0,0-9.6-8.1-22-15.8c-13.6-8.3-33.3-16.9-35.3-16.4c-2,0.5-9,12.7-8.8,15.1
		c0.2,2.5,15.8,8.1,31.5,14.6C108.5,237.2,123,247.1,123,247.1z"/>
</g>

<g id="bodyLineColor">
	<path class="st9" d="M148.9,306.1c0,0,6.3,8.2,8.7,8c0,0,5.8-4.5,7.2-11.6l-0.6-19.6l-42.1,4.8c0,0-13.6,14.3-12.3,17.2
		s16.2-1.3,16.2-1.3s4.7,10.3,8.8,12.3C138.8,317.9,144.3,311.5,148.9,306.1z"/>
	<path class="st9" d="M204.4,306.1c0,0-6.3,8.2-8.7,8c0,0-5.8-4.5-7.2-11.6l0.6-19.6l42.1,4.8c0,0,13.6,14.3,12.3,17.2
		c-1.2,2.9-16.2-1.3-16.2-1.3s-4.7,10.3-8.8,12.3C214.5,317.9,209,311.5,204.4,306.1z"/>
	<g>
		<g>
			<g>
				<g>
					<path class="st10" d="M177.4,167.6h46.4c0,0,23.7,33.2,26.7,60.5l2.7,23.3c0,0,4.3,34.3,4.8,37.3s3.1,3.8,3.1,3.8
						s4.7,9.7,0.6,10c-4.1,0.3-13.4,0.3-22.8-4.4c-7-3.5-22.4-2.7-41.5-0.6c-6.5,0.7-12.6,4.3-20.1,4.3c-9.3,0-23.9-3.9-23.9-3.9
						l0.1-6.5c0,0-32.6,4-37.8,6.6c-9.3,4.7-18.7,4.6-22.8,4.3c-4.1-0.3,1.6-10.8,1.6-10.8s1.5-0.5,2-3.5s4.8-38,4.8-38l2.7-21.8
						c3-27.3,26.7-60.5,26.7-60.5h33.7H177.4z"/>
					<path d="M177.4,166.9l11.6-0.1c3.9,0,7.7-0.1,11.6-0.1c3.9-0.1,7.7-0.1,11.6-0.2l11.6-0.3l0.5,0l0.3,0.4
						c3.3,4.5,6.4,9.2,9.3,13.9c2.9,4.8,5.7,9.7,8.2,14.7c1.3,2.5,2.4,5.1,3.5,7.7c1.1,2.6,2.2,5.2,3.1,7.9c0.9,2.7,1.7,5.4,2.4,8.2
						c0.7,2.8,1.3,5.6,1.6,8.5c0.6,5.5,1.3,11,1.8,16.6l0.9,8.3c0.3,2.8,0.6,5.5,0.9,8.3l1.8,16.6l0.9,8.3l0.2,2.1
						c0.1,0.7,0.2,1.4,0.3,1.8c0.1,0.5,0.4,0.9,0.7,1.3c0.3,0.4,0.8,0.7,1.2,0.9l0.5,0.2l0.2,0.4c0.6,1.2,1,2.4,1.4,3.7
						c0.4,1.3,0.7,2.5,0.8,4c0,0.7,0,1.5-0.4,2.4c-0.2,0.4-0.6,0.9-1,1.1c-0.5,0.3-1,0.4-1.4,0.4c-1.3,0.1-2.6,0.1-3.9,0.1
						c-5.2-0.2-10.3-1.2-15.1-3c-1.2-0.5-2.4-1-3.6-1.5c-1.1-0.6-2.2-1-3.4-1.3c-2.4-0.7-4.9-0.9-7.3-1.1c-2.5-0.2-5-0.2-7.5-0.1
						c-2.5,0.1-5,0.2-7.5,0.4c-5,0.4-10.1,0.9-15.1,1.6l-0.5,0.1l-0.4,0.1l-0.9,0.1c-0.6,0.1-1.2,0.2-1.8,0.4
						c-1.2,0.3-2.4,0.6-3.6,1c-2.4,0.8-4.8,1.6-7.4,2.2c-2.5,0.6-5.3,0.9-7.8,0.8c-2.6-0.1-5.2-0.3-7.7-0.6
						c-2.5-0.3-5.1-0.7-7.6-1.2c-2.5-0.5-5-1-7.5-1.6l-1.4-0.3l0-1.5l0.1-6.5l2.1,1.9c-6.1,0.8-12.2,1.7-18.3,2.7
						c-3,0.5-6.1,1-9.1,1.6c-1.5,0.3-3,0.6-4.5,0.9c-1.5,0.3-2.9,0.7-4.2,1.1c-0.3,0.1-0.6,0.2-0.8,0.3l-1,0.5
						c-0.7,0.3-1.4,0.7-2.2,1c-1.5,0.6-3.1,1.2-4.6,1.6c-3.1,0.9-6.4,1.4-9.6,1.7c-1.6,0.1-3.2,0.2-4.9,0.1l-1.2-0.1l-0.3,0l-0.4,0
						l-0.2,0c-0.1,0-0.3-0.1-0.4-0.1c-0.2-0.1-0.5-0.1-0.7-0.3c-0.5-0.2-1-0.6-1.3-1c-0.3-0.4-0.6-0.9-0.7-1.3
						c-0.3-0.8-0.3-1.4-0.3-2c0-1.1,0.2-2,0.5-2.9c0.2-0.9,0.5-1.7,0.8-2.4c0.6-1.6,1.3-3,2-4.5l1.4-1.2c-0.2,0.1-0.2,0.1-0.2,0.1
						l-0.1,0c0,0,0,0,0,0l0,0c0.1-0.1,0.1-0.2,0.2-0.3c0.1-0.3,0.3-0.7,0.4-1.2c0.2-1.2,0.3-2.6,0.5-4l1-8.2l2-16.3l4.2-32.7
						c0.2-1.3,0.4-2.8,0.7-4.2c0.3-1.4,0.6-2.8,1-4.1c0.7-2.7,1.5-5.4,2.5-8.1c0.9-2.6,2-5.2,3.1-7.8c1.1-2.6,2.3-5.1,3.5-7.5
						c2.5-4.9,5.3-9.8,8.1-14.5c2.9-4.7,5.9-9.3,9.2-13.8l0.3-0.4l0.5,0l11.7,0.3c3.9,0.1,7.8,0.2,11.7,0.2
						c3.9,0.1,7.8,0.1,11.7,0.1L177.4,166.9z M177.4,167.4l-11.7,0.1c-3.9,0-7.8,0.1-11.7,0.1c-3.9,0.1-7.8,0.1-11.7,0.2l-11.7,0.3
						l0.8-0.4c-1.5,2.3-2.9,4.6-4.3,7c-1.4,2.4-2.7,4.7-4,7.1c-2.6,4.8-5,9.7-7.2,14.7c-2.2,5-4.2,10-5.8,15.1
						c-0.8,2.6-1.6,5.1-2.2,7.7c-0.3,1.3-0.6,2.6-0.8,3.9c-0.2,1.3-0.4,2.5-0.6,3.9l-1.9,16.3c-0.6,5.4-1.2,10.9-1.9,16.4l-2.1,16.3
						c-0.3,2.7-0.7,5.4-1.1,8.2c-0.2,1.4-0.4,2.7-0.6,4.2c-0.2,0.9-0.4,1.8-0.9,2.7c-0.2,0.5-0.5,0.9-1,1.4
						c-0.2,0.2-0.4,0.4-0.7,0.7c-0.1,0.1-0.3,0.2-0.4,0.3c-0.1,0.1-0.2,0.1-0.3,0.2c-0.1,0.1-0.2,0.1-0.5,0.2l1.4-1.2
						c-0.7,1.2-1.3,2.6-1.8,3.9c-0.3,0.7-0.5,1.3-0.7,1.9c-0.2,0.6-0.3,1.3-0.3,1.7c0,0.2,0,0.3,0,0.3c0-0.1-0.2-0.4-0.5-0.6
						c-0.1,0-0.1-0.1-0.2-0.1c0,0-0.1,0-0.1,0c0,0,0,0,0,0l0.1,0l0.4,0l1.1,0.1c1.5,0.1,2.9,0.1,4.4,0c2.9-0.2,5.8-0.6,8.6-1.4
						c1.4-0.4,2.8-0.8,4.1-1.4l1-0.4c0.3-0.1,0.7-0.3,1-0.5l1.1-0.5c0.5-0.2,0.9-0.4,1.3-0.5c1.6-0.5,3.2-0.8,4.7-1.2
						c1.5-0.3,3.1-0.6,4.6-0.9c3.1-0.5,6.1-1,9.2-1.4c6.1-0.9,12.3-1.6,18.4-2.3l2.2-0.2l-0.1,2.2l-0.2,6.5l-1.4-1.8
						c2.4,0.7,4.8,1.3,7.3,1.8c2.4,0.6,4.9,1.1,7.4,1.5c2.5,0.4,4.9,0.8,7.4,0.9c2.5,0.2,4.8,0,7.2-0.5c2.4-0.5,4.8-1.2,7.3-1.9
						c1.2-0.3,2.5-0.7,3.8-0.9c0.6-0.1,1.3-0.2,2-0.4l0.9-0.1l0.5-0.1l0.5,0c5-0.5,10.1-0.9,15.2-1.2c5.1-0.3,10.2-0.5,15.3-0.1
						c2.6,0.2,5.1,0.5,7.6,1.1c1.3,0.3,2.6,0.8,3.7,1.4c1.1,0.5,2.3,1,3.4,1.4c4.7,1.7,9.6,2.5,14.6,2.6c1.3,0,2.4,0,3.7-0.2
						c0.5-0.1,0.5-0.1,0.7-0.4c0.1-0.3,0.2-0.8,0.1-1.3c-0.2-2.2-1.2-4.6-2.2-6.8l0.7,0.6c-0.5-0.2-0.8-0.4-1.2-0.6
						c-0.4-0.2-0.7-0.5-1-0.8c-0.6-0.6-1.1-1.3-1.5-2.2c-0.4-0.9-0.4-1.6-0.5-2.3l-0.3-2.1l-1.3-8.2l-2.5-16.5
						c-0.4-2.7-0.8-5.5-1.2-8.2l-1.1-8.3c-0.7-5.5-1.3-11-2-16.5c-0.3-2.7-0.8-5.3-1.4-7.9c-0.6-2.6-1.4-5.2-2.2-7.8
						c-0.8-2.6-1.7-5.2-2.7-7.7c-1-2.6-2.1-5.1-3.2-7.6c-2.2-5-4.6-10-7.3-14.8c-1.3-2.4-2.7-4.8-4.1-7.2c-1.4-2.4-2.8-4.8-4.3-7
						l0.8,0.4l-11.6-0.3c-3.9-0.1-7.7-0.2-11.6-0.2c-3.9-0.1-7.7-0.1-11.6-0.1L177.4,167.4z"/>
				</g>
				<polygon class="st11" points="201.4,158.6 156.4,158.6 162.3,177.6 179,191.3 201.4,173.5 				"/>
				<path class="st12" d="M181.5,188.5c-1.1-2.4-3.4-4.5-5.1-6c-7.5-6.5-13-15.4-13-15.4l-22-2.5c0,0,0.6,8,8.5,16
					c5.5,5.6,17.8,8.3,26.7,15.5C177.9,193.4,179.6,190.9,181.5,188.5z"/>
				<path class="st12" d="M172.5,208.4c0,0,2.5-19.4,10-25.9s14-15.4,14-15.4l18-2.5c0,0,3.4,8-4.5,16S178.5,190.6,172.5,208.4z"/>
			</g>
			<path d="M226.7,166.2c0-1.4-0.1-2.2-0.1-2.2l-0.4,0c0,0,0,0.7-0.2,2.1c-0.2,1.4-0.5,3.4-1.2,5.9c-0.7,2.5-1.8,5.5-3.6,8.5
				c-1.8,3-4.6,6-8.3,8c-0.9,0.5-1.9,1-3,1.4c-1.1,0.4-2.2,0.9-3.3,1.3c-2.3,0.8-4.6,1.6-7.1,2.5c-4.9,1.8-10,4-15.1,6.7
				c-0.6,0.3-1.3,0.7-1.9,1c-0.6,0.3-1.3,0.7-1.9,1.1c-1.2,0.8-2.5,1.6-3.7,2.5c-1.2,0.9-2.3,1.9-3.3,3.1c-1,1.1-2,2.4-2.8,3.7
				c-0.8,1.4-1.4,2.8-1.9,4.2c-0.5,1.4-1.1,2.8-1.7,4.1c-1.2,2.7-2.5,5.5-3.7,8.3c-2.4,5.6-4.3,11.5-5.8,17.3
				c-1.6,5.8-2.6,11.7-3.5,17.3c-0.4,2.8-0.8,5.6-1.1,8.4c-0.3,2.7-0.6,5.4-0.8,8c-0.2,2.6-0.4,5.2-0.5,7.6
				c-0.1,2.5-0.2,4.8-0.3,7.1c-0.1,1.8-0.1,3.6-0.1,5.3c0.6,0,1.2,0.1,1.8,0.2c0.6,0.1,1.1,0.2,1.7,0.3c0.2-1.8,0.3-3.6,0.4-5.5
				c0.4-4.5,0.7-9.4,1.2-14.6c0.5-5.1,1.1-10.6,1.9-16.1c0.8-5.6,1.7-11.3,3-17c1.3-5.7,3.1-11.4,5.1-17.1c1.1-2.8,2.1-5.7,3.2-8.5
				c0.5-1.5,1-2.9,1.5-4.3c0.5-1.5,0.8-2.8,1.4-4.1c1.1-2.6,2.9-4.9,5.2-6.7c1.1-0.9,2.3-1.7,3.5-2.4c1.2-0.7,2.5-1.3,3.8-1.9
				c5.2-2.1,10.6-3.2,15.6-4.7c2.5-0.8,4.9-1.6,7.2-2.5c1.1-0.5,2.3-0.9,3.4-1.4c1.1-0.5,2.2-1.1,3.3-1.7c4.2-2.5,7-6.2,8.8-9.6
				c1.8-3.5,2.6-6.7,3-9.4C226.7,169.8,226.7,167.6,226.7,166.2z"/>
			<g>
				<path d="M129.7,158.6c0,0,0.2,1,0.6,2.7c0.5,1.7,1.2,4.2,2.3,7c0.6,1.4,1.3,2.9,2.1,4.4c0.8,1.5,1.7,3.1,2.8,4.6
					c2.1,3.1,4.7,6.1,7.8,8.6c1.5,1.3,3.1,2.4,4.8,3.4c0.4,0.2,0.8,0.5,1.2,0.7c0.4,0.2,0.9,0.5,1.3,0.7c0.9,0.5,1.7,1,2.5,1.4
					c1.7,0.9,3.3,1.8,4.8,2.7c1.5,0.8,3,1.6,4.4,2.3c1.4,0.7,2.6,1.3,3.7,1.9c1.1,0.5,2.1,1,2.9,1.4c0.8,0.4,1.5,0.6,1.9,0.8
					c0.4,0.2,0.7,0.3,0.7,0.3s-1-0.1-2.8-0.5c-1.8-0.4-4.3-1.1-7.2-2.2c-1.5-0.5-3-1.2-4.6-1.9c-1.6-0.7-3.3-1.5-5.1-2.4
					c-0.9-0.4-1.7-0.9-2.6-1.3c-0.4-0.2-0.9-0.5-1.3-0.7c-0.5-0.3-0.9-0.5-1.4-0.8c-1.8-1.1-3.6-2.3-5.2-3.6
					c-1.6-1.4-3.1-2.9-4.5-4.5c-1.4-1.6-2.5-3.3-3.6-5c-1-1.7-1.9-3.4-2.6-5.1c-0.7-1.7-1.2-3.3-1.7-4.8c-0.8-3-1.2-5.6-1.3-7.4
					C129.6,159.7,129.7,158.6,129.7,158.6z"/>
			</g>
			<path class="st13" d="M101.1,227.9c0,0,25.5,3.7,73.4,3.7s79.3-3.7,79.3-3.7l2.8,23.5c0,0-29.7,3.8-82,3.8
				c-49.6,0-76.2-5.2-76.2-5.2L101.1,227.9z"/>
			<path class="st13" d="M231,257.1l-21.6,1.1c-4,0.2-7.4-2.8-7.6-6.8L201,236c-0.2-4,2.8-7.4,6.8-7.6l21.6-1.1
				c4-0.2,7.4,2.8,7.6,6.8l0.8,15.3C238,253.5,234.9,256.8,231,257.1z"/>
		</g>
		<g>
			<path d="M94.4,290c0,0,1.9-0.1,4.7-0.3c1.4-0.1,3.1-0.2,4.8-0.4c0.9-0.1,1.8-0.2,2.7-0.4c0.9-0.1,1.8-0.3,2.7-0.5
				c0.5-0.1,0.8-0.2,1.3-0.4c0.4-0.1,0.9-0.3,1.4-0.4c1-0.2,1.9-0.4,2.8-0.5c1.8-0.2,3.5-0.4,4.9-0.5c2.9-0.2,4.8-0.2,4.8-0.2
				s-1.9,0.2-4.7,0.7c-1.4,0.2-3,0.5-4.7,1c-0.9,0.2-1.7,0.5-2.6,0.7c-0.4,0.1-0.8,0.3-1.3,0.5c-0.4,0.2-0.9,0.4-1.4,0.6
				c-0.9,0.3-1.9,0.6-2.8,0.8c-0.9,0.2-1.8,0.4-2.7,0.6c-1.8,0.4-3.4,0.7-4.8,0.9c-2.8,0.5-4.7,0.7-4.7,0.7L94.4,290z"/>
		</g>
		<g>
			<path d="M261.1,294c0,0-0.7,0-1.8,0c-1.1,0-2.7-0.1-4.6-0.3c-1.9-0.2-4.1-0.5-6.4-1.1c-1.2-0.3-2.4-0.7-3.6-1.4
				c-0.1-0.1-0.3-0.2-0.4-0.3l-0.4-0.3l-0.4-0.3l-0.3-0.2c-0.5-0.3-1-0.5-1.6-0.7c-2.2-0.9-4.7-1.5-6.9-2c-2.3-0.5-4.4-1-6.2-1.3
				c-3.7-0.7-6.1-1.1-6.1-1.1s2.5,0.2,6.2,0.6c1.9,0.2,4,0.5,6.3,0.8c2.3,0.4,4.8,0.8,7.2,1.5c0.6,0.2,1.2,0.4,1.8,0.7l0.5,0.2
				l0.4,0.2l0.4,0.2c0.1,0.1,0.2,0.1,0.4,0.2c1,0.5,2.1,0.7,3.2,0.9c2.2,0.4,4.3,0.5,6.1,0.6c1.8,0,3.3,0,4.4,0
				c1.1-0.1,1.7-0.1,1.7-0.1L261.1,294z"/>
		</g>
	</g>
</g>

<g id="headColor">
	<path class="st11" d="M351.5,28c-3,5.1-6.5,10-8.5,15.6c-2.8,7.6-2.5,16-3,24.1c-0.5,8.1-3.7,16.1-9.1,22.2
		c-7,7.9-17.1,7.9-27.2,10.8c-7.6,2.2-14.6,7.5-21.4,11.6c-12.1,45.9-52.3,63.4-101.1,63.4c-61,0-93-34.5-105.4-69.7
		c-6.7-2.3-10.9-5.1-19.9-7.6c-10.2-2.9-21.8-2.9-28.8-10.8c-5.4-6.1-7.1-11.7-7.6-19.8c-0.5-8.1-0.2-16.5-3-24.1
		c-2-5.6-5.6-10.4-8.5-15.6c-1.3-2.3-4.3-9.7-3.6-12.3c0.8-3.1,3.9-3,7.1-3c3.2-0.1,8.2,3.9,10.9,5.5c5.2,3,9.9,6.8,13.8,11.3
		c2.7,3,5.1,6.3,8.5,8.5c7.6,4.9,17.6,2.7,26.5,1c8.8-1.7,19.2-2.3,25.2,4.2c18.9-21.2,49.8-35,84.8-35c34.2,0,64.5,13.2,83.5,33.6
		c6.1-5,15.6-4.4,23.7-2.8c8.9,1.8,18.9,4,26.5-1c3.4-2.2,5.8-5.5,8.5-8.5c4-4.5,8.7-8.3,13.8-11.3c2.8-1.6,5.8-3,9-3
		c3.2,0.1,6.6,2,7.3,5.1C354.1,23,352.9,25.7,351.5,28z"/>
</g>

<g id="headAccentColors">
	<path class="st14" d="M93.9,82.6c0,0-8.2,8.8-12.9,10.7c-4.7,1.8-10.2,1.3-14-4.2S55.4,75.8,50.7,75.3c-4.7-0.5-12.5,3.5-16.7-1
		s-5.8-11.7-6.3-22.2s-11.1-24.5-7.8-26c2.5-1.2,9.2,14.3,14.3,19s16.8,7.5,22.4,6.3C62.2,50.3,73.7,47,81.2,62S88.3,80.8,93.9,82.6
		z"/>
	<path class="st14" d="M263.3,85.6c0,0,8.2,8.8,12.9,10.7c4.7,1.8,10.2,1.3,14-4.2c3.8-5.5,11.7-13.4,16.3-13.9
		c4.7-0.5,12.5,3.5,16.7-1c4.2-4.5,5.8-11.7,6.3-22.2s11.1-24.5,7.8-26c-2.5-1.2-9.2,14.3-14.3,19c-5.2,4.7-16.8,7.5-22.4,6.3
		C295,53.3,283.5,50,276,65S268.9,83.8,263.3,85.6z"/>
</g>

<g id="headLines">
	<g>
		<path d="M107.3,55.3c0,0-0.6-0.8-1.9-2.2c-1.3-1.4-3.2-3.4-5.8-5.7c-2.6-2.2-6-4.9-10.3-6.6c-2.1-0.8-4.5-1.3-7-1.2
			c-0.3,0-0.6,0-0.9,0.1c-0.3,0-0.6,0.1-1,0.1c-0.7,0.1-1.4,0.2-2.1,0.4C77,40.5,75.5,40.7,74,41c-3,0.5-6.1,1.1-9.4,1.6
			c-1.7,0.3-3.3,0.5-5.1,0.6c-1.7,0.1-3.5,0.2-5.4,0.1c-1.9-0.1-3.8-0.4-5.8-1c-1-0.3-2-0.8-2.9-1.4l-0.7-0.5l-0.6-0.5l-1-1
			c-2.6-2.6-5.2-5.3-7.9-8c-2.7-2.7-5.5-5.4-8.4-7.9c-2.9-2.6-6-4.9-9.5-6.9c-1.7-1-3.5-1.9-5.3-2.5c-1.8-0.6-3.7-0.7-5.2,0.2
			C6.7,13.9,6.6,14,6.5,14c0,0-0.2,0.1-0.3,0.2C6,14.4,6,14.5,5.8,14.6c-0.2,0.3-0.4,0.6-0.5,1c-0.2,0.8-0.2,1.7-0.1,2.6
			c0.3,1.8,1,3.7,1.8,5.4c0.8,1.8,1.8,3.5,2.9,5.2c0.5,0.8,1.1,1.7,1.7,2.5l1.8,2.5c0.3,0.4,0.6,0.8,0.9,1.3l0.8,1.4
			c0.6,0.9,1,1.8,1.5,2.8c0.9,1.9,1.7,3.8,2.4,5.8c2.6,8,2.7,16.3,3,23.8c0.2,3.4,1.2,6.7,2.9,9.4c1.7,2.7,4.1,4.9,6.7,6.8
			c2.6,1.9,5.5,3.6,8.3,4.8c2.8,1.2,5.7,2.2,8.6,3c2.9,0.8,5.7,1.6,8.5,2.5c1.4,0.5,2.7,1,4,1.6c0.6,0.3,1.3,0.6,1.9,0.9
			c0.3,0.2,0.6,0.3,0.9,0.5c0.3,0.2,0.5,0.3,0.8,0.5c2.1,1.4,4,2.7,5.8,3.6c1.8,1,3.5,1.6,5.2,2c3.3,0.8,6.1,0.7,8,0.7
			c0.9,0,1.7-0.1,2.2-0.1c0.5,0,0.7,0,0.7,0l0.1,0.5c0,0-0.2,0.1-0.7,0.2c-0.5,0.1-1.2,0.3-2.1,0.5c-1.9,0.3-4.7,0.8-8.5,0.5
			c-1.9-0.2-3.9-0.6-6-1.5c-2.1-0.9-4.2-2-6.3-3.1c-0.3-0.1-0.6-0.3-0.8-0.4c-0.3-0.1-0.5-0.2-0.8-0.4c-0.5-0.3-1.1-0.5-1.6-0.7
			c-1.1-0.4-2.4-0.8-3.7-1.2c-2.6-0.7-5.4-1.3-8.4-2c-3-0.7-6.2-1.5-9.4-2.9c-3.2-1.4-6.3-3-9.4-5.1c-3-2.1-6-4.9-8.2-8.4
			c-1.1-1.8-1.9-3.7-2.4-5.7c-0.6-2-0.8-4.1-0.9-6.2c0-0.5,0-0.9,0-1.5l0-1.4c0-0.9,0-1.9,0-2.9c0-1.9-0.1-3.8-0.2-5.7
			c-0.2-3.8-0.7-7.6-1.7-11.3c-0.4-1.9-1.1-3.7-1.8-5.5c-0.4-0.9-0.7-1.8-1.2-2.6l-0.6-1.3c-0.2-0.4-0.5-0.9-0.7-1.3
			c-2.1-3.4-4.3-7-5.8-10.9c-0.8-1.9-1.5-4-1.7-6.2c-0.1-1.1-0.1-2.3,0.3-3.4c0.2-0.6,0.5-1.1,0.9-1.6c0.2-0.2,0.5-0.5,0.7-0.7
			c0.1-0.1,0.2-0.1,0.4-0.2c0.1-0.1,0.2-0.2,0.4-0.2c1-0.6,2.2-0.8,3.3-0.8c1.1,0,2.2,0.3,3.2,0.6c2,0.7,3.8,1.7,5.6,2.7
			c1.7,1,3.5,2,5.1,3.2c1.6,1.2,3.2,2.4,4.8,3.6C31,24.1,34,26.5,37,29c2.9,2.4,5.8,4.8,8.6,7.2l1,0.9l0.4,0.3l0.5,0.3
			c0.6,0.3,1.3,0.6,2,0.8c1.5,0.4,3.1,0.6,4.7,0.6c3.3,0.1,6.6-0.3,9.7-0.7c3.2-0.4,6.3-0.9,9.3-1.4c1.5-0.2,3-0.4,4.5-0.6
			c0.7-0.1,1.4-0.2,2.2-0.3c0.3,0,0.8-0.1,1.2-0.1c0.4,0,0.8-0.1,1.2-0.1c3.1,0,6,0.8,8.4,2c2.4,1.1,4.4,2.5,6.1,3.9
			c1.7,1.4,3.2,2.8,4.4,4.2c2.4,2.7,4.1,5,5.1,6.6c1,1.6,1.5,2.5,1.5,2.5L107.3,55.3z"/>
	</g>
	<g>
		<path d="M252.7,55c0,0,0.5-0.9,1.5-2.5c1-1.6,2.6-3.9,5.1-6.6c1.2-1.3,2.6-2.8,4.4-4.2c1.7-1.4,3.7-2.8,6.1-3.9
			c1.2-0.6,2.5-1.1,3.9-1.4c1.4-0.4,2.9-0.6,4.4-0.6c0.8,0,1.6,0.1,2.3,0.1c0.7,0.1,1.4,0.2,2.1,0.3c1.4,0.2,2.9,0.4,4.4,0.6
			c3,0.5,6.1,1,9.3,1.4c3.2,0.4,6.5,0.8,9.7,0.8c1.6,0,3.2-0.1,4.7-0.5c0.7-0.2,1.4-0.4,2.1-0.8c0.6-0.3,1.1-0.7,1.9-1.3
			c2.7-2.3,5.5-4.9,8.3-7.4c2.8-2.5,5.8-5.1,8.9-7.6c1.6-1.2,3.2-2.4,4.9-3.4c0.9-0.5,1.8-1,2.8-1.4c1-0.4,1.9-0.6,2.9-0.9
			c2-0.5,4.1-0.8,6.2-0.7c1.1,0.1,2.1,0.3,3.2,0.7c0.5,0.2,1,0.5,1.5,0.9c0.5,0.4,0.9,1,1.1,1.5c0.2,0.5,0.4,0.9,0.6,1.4
			c0.2,0.5,0.4,1.1,0.5,1.7c0.2,1.2,0,2.3-0.3,3.4c-0.6,2.1-1.5,4-2.5,5.8c-0.5,0.9-1,1.8-1.5,2.7l-0.8,1.3l-0.7,1.3
			c-0.5,0.9-0.9,1.7-1.4,2.6c-0.4,0.9-0.8,1.8-1.2,2.6c-1.4,3.6-2.4,7.3-2.9,11.1c-0.5,3.8-0.7,7.6-0.7,11.5c0,1.9,0,3.8,0,5.9
			c-0.1,2.1-0.3,4.1-0.6,6.1c-0.3,2-0.8,3.9-1.4,5.9c-0.6,1.9-1.4,3.7-2.4,5.5c-1.9,3.5-4.4,6.7-7.5,9c-0.8,0.6-1.6,1.1-2.4,1.6
			c-0.4,0.3-0.8,0.4-1.3,0.7c-0.4,0.2-0.7,0.4-1.2,0.6c-1.8,0.8-3.5,1.3-5.2,1.7c-3.4,0.8-6.7,1.1-9.7,1.4c-3,0.3-5.9,0.4-8.5,0.9
			c-1.3,0.2-2.5,0.5-3.6,0.8c-0.5,0.2-1.1,0.4-1.6,0.6c-0.2,0.1-0.5,0.2-0.8,0.4c-0.3,0.1-0.5,0.3-0.8,0.4c-2,1.2-3.9,2.5-5.9,3.6
			c-1.9,1.1-3.9,1.9-5.7,2.4c-3.7,0.8-6.6,0.4-8.5,0.2c-1-0.2-1.7-0.3-2.2-0.4c-0.5-0.1-0.7-0.2-0.7-0.2l0.1-0.5c0,0,0.3,0,0.7,0
			c0.5,0,1.2,0,2.1,0c1.9,0,4.7-0.1,7.8-1.3c1.6-0.6,3.2-1.5,4.8-2.7c1.6-1.2,3.4-2.7,5.5-4.2c0.3-0.2,0.5-0.4,0.8-0.6
			c0.3-0.2,0.5-0.4,0.9-0.5c0.6-0.4,1.3-0.7,2-1c1.4-0.6,2.8-0.9,4.2-1.3c2.8-0.6,5.8-1,8.8-1.4c3-0.4,6-0.8,9-1.7
			c1.5-0.4,2.9-0.9,4.2-1.5c0.3-0.1,0.7-0.4,1.1-0.5c0.2-0.1,0.6-0.4,0.9-0.6c0.6-0.4,1.3-0.8,1.9-1.3c2.4-1.9,4.5-4.4,6-7.4
			c1.6-2.9,2.7-6.2,3.4-9.7c0.3-1.7,0.6-3.6,0.7-5.3c0.1-1.8,0.1-3.8,0.2-5.8c0.2-4,0.4-8,1.2-12.1c0.7-4.1,2-8.1,3.9-11.9
			c0.5-0.9,1-1.9,1.5-2.8c0.6-0.9,1.1-1.8,1.7-2.6l0.9-1.3l0.9-1.2c0.6-0.8,1.1-1.6,1.7-2.5c1.1-1.7,2-3.4,2.6-5.1
			c0.3-0.9,0.5-1.7,0.5-2.6c0-0.4-0.1-0.8-0.2-1.2c-0.1-0.4-0.4-0.9-0.5-1.4c-0.5-1.4-2.5-2.1-4.3-2.3c-1.9-0.2-3.8,0.1-5.7,0.6
			c-0.9,0.2-1.9,0.5-2.7,0.9c-0.9,0.4-1.7,0.8-2.5,1.3c-1.6,1-3.1,2.2-4.6,3.5c-2.9,2.5-5.5,5.3-8.1,8.1c-2.6,2.8-5,5.6-7.7,8.2
			c-0.6,0.6-1.5,1.4-2.4,2c-0.9,0.6-1.9,1-2.9,1.3c-2,0.6-3.9,0.8-5.7,0.9c-3.7,0.1-7.2-0.3-10.5-0.8c-3.3-0.5-6.4-1.1-9.4-1.6
			c-1.5-0.3-2.9-0.5-4.4-0.8c-0.7-0.1-1.4-0.2-2.1-0.4c-0.6-0.1-1.2-0.2-1.8-0.2c-2.4-0.1-4.8,0.4-6.9,1.2
			c-4.3,1.7-7.7,4.3-10.3,6.6c-2.6,2.3-4.5,4.3-5.8,5.7c-1.3,1.4-1.9,2.2-1.9,2.2L252.7,55z"/>
	</g>
	<g>
		<path d="M97.7,73.7c0,0,0,0.1,0,0.3c0,0.2,0,0.4,0,0.7c0,0.6-0.1,1.4-0.3,2.3c-0.1,0.4-0.2,0.9-0.5,1.4c-0.2,0.5-0.6,0.9-1,1.4
			c-0.4,0.5-0.7,1-0.8,1.7c-0.1,0.6-0.1,1.2,0,1.9c0.1,0.6,0.3,1.3,0.3,1.9c0,0.6,0.1,1.2,0.1,1.8c0,0.6,0,1.1,0,1.6
			c-0.1,0.5-0.1,1-0.2,1.5c-0.1,0.5-0.2,0.9-0.3,1.3c-0.1,0.4-0.2,0.7-0.3,1c-0.2,0.6-0.4,0.9-0.4,0.9l-0.3,0c0,0-0.2-0.3-0.5-0.8
			c-0.1-0.3-0.3-0.6-0.5-1c-0.2-0.4-0.3-0.8-0.4-1.3c-0.1-0.5-0.2-1-0.3-1.6c0-0.6,0-1.2,0.1-1.8c0.1-0.6,0.2-1.2,0.4-1.9
			c0.2-0.6,0.4-1.3,0.8-1.9c0.3-0.6,0.6-1.2,0.7-1.8c0.2-0.6,0.2-1.2,0.1-1.9c-0.1-0.6-0.1-1.3,0-1.8c0.1-0.6,0.3-1,0.6-1.5
			c0.2-0.4,0.5-0.8,0.8-1.1c0.3-0.3,0.5-0.6,0.8-0.8c0.2-0.2,0.4-0.3,0.6-0.4c0.2-0.1,0.2-0.1,0.2-0.1L97.7,73.7z"/>
	</g>
	<g>
		<path d="M94.1,82.8c0,0-0.5,0.7-1.6,2c-1.1,1.3-2.6,3.1-4.9,5.3c-1.1,1.1-2.4,2.3-4,3.4c-1.6,1.2-3.8,2.1-6.2,2.4
			c-2.4,0.3-5.2,0-7.6-1.4c-1.2-0.7-2.4-1.6-3.3-2.7c-0.3-0.3-0.5-0.5-0.7-0.8c-0.2-0.3-0.5-0.6-0.6-0.8c-0.4-0.5-0.7-1-1.1-1.5
			c-1.6-2-3.4-3.9-5.3-5.7c-2-1.8-4.1-3.7-6.4-4.8c-0.5-0.3-1.1-0.5-1.6-0.6c-0.1,0-0.2-0.1-0.3-0.1l-0.3,0l-0.2,0
			c-0.2,0-0.6,0-0.9,0c-1.3,0.1-2.9,0.3-4.5,0.5c-1.6,0.2-3.3,0.4-5.1,0.2c-1.8-0.1-3.8-0.6-5.4-1.9c-0.4-0.3-0.7-0.6-1.1-1.1
			c-0.3-0.3-0.5-0.6-0.8-1c-0.5-0.8-1-1.5-1.4-2.3c-0.8-1.6-1.4-3.2-1.9-4.9c-0.9-3.4-1.4-6.8-1.7-10.2c-0.2-1.7-0.3-3.5-0.4-5.2
			c0-0.4-0.1-0.9-0.1-1.3L26.5,49c-0.1-0.8-0.3-1.7-0.5-2.5c-0.4-1.6-1-3.2-1.7-4.8c-0.7-1.6-1.4-3.1-2.2-4.6l-2.5-4.6
			c-0.4-0.8-0.8-1.6-1.2-2.5c-0.2-0.4-0.4-0.9-0.5-1.3c0-0.1-0.1-0.3-0.1-0.4L17.7,28l-0.1-0.3c0-0.2,0-0.3,0-0.7
			c0-0.1,0.1-0.4,0.3-0.7c0.1-0.2,0.7-0.8,1.1-0.9c0.4-0.1,1-0.1,1.1,0c0.2,0,0.4,0.1,0.5,0.2c0.1,0,0.2,0.1,0.3,0.1l0.2,0.1
			c0.4,0.3,0.5,0.5,0.8,0.6c0.2,0.2,0.4,0.4,0.5,0.5c0.3,0.4,0.6,0.7,0.9,1c0.6,0.7,1.1,1.4,1.7,2c1.1,1.4,2.1,2.7,3.2,4.1
			c2.1,2.7,4.2,5.4,6.4,7.7c0.3,0.3,0.5,0.6,0.8,0.8l0.4,0.4l0.2,0.2l0,0c0,0-0.1-0.1,0,0l0.1,0.1c0.3,0.2,0.7,0.5,1,0.8l0.8,0.5
			c1.2,0.7,2.6,1.4,4,1.9c2.8,1.1,5.8,1.8,8.7,2.2c1.4,0.2,2.9,0.3,4.1,0.2c0.3,0,0.7,0,0.9-0.1c0.3,0,0.5-0.1,0.9-0.2
			c0.8-0.2,1.5-0.3,2.3-0.5c3.1-0.6,6.4-0.8,9.6-0.1c3.2,0.6,6.1,2.2,8.3,4.1c1.1,1,2.1,2,2.9,3.1c0.8,1.1,1.5,2.2,2.1,3.3
			c1.2,2.3,2,4.4,2.9,6.3c1.7,4,2.9,7.5,4,10.3c0.5,1.4,1.1,2.6,1.6,3.6c0.5,1,1.2,1.7,1.8,2.1c0.6,0.5,1.1,0.8,1.5,0.9l0.9,0.4
			L94.1,82.8z M93.4,82.8c-0.1,0-0.1,0-0.2,0c-0.4-0.1-1-0.3-1.8-0.7c-0.8-0.4-1.6-1.1-2.4-2.1c-0.8-1-1.5-2.2-2.3-3.6
			c-0.7-1.4-1.5-2.9-2.3-4.5c-0.8-1.6-1.8-3.4-2.7-5.3c-1-1.8-2.1-3.9-3.3-5.7c-1.2-1.9-2.7-3.7-4.5-5c-1.8-1.4-3.9-2.4-6.3-2.7
			c-2.4-0.4-5-0.1-7.7,0.5c-0.7,0.2-1.4,0.3-2.2,0.5c-0.3,0.1-0.9,0.2-1.3,0.2c-0.5,0.1-0.9,0.1-1.4,0.1c-1.8,0.1-3.5,0-5.2-0.2
			c-3.4-0.5-6.7-1.4-9.9-2.7c-1.6-0.7-3.2-1.5-4.8-2.5L33.8,48c-0.4-0.3-0.7-0.5-1-0.8l-0.1-0.1L32.5,47l-0.1-0.1l-0.3-0.3l-0.5-0.5
			c-0.3-0.3-0.6-0.7-0.9-1c-2.3-2.7-4.3-5.5-6.3-8.3c-1-1.4-2-2.8-3-4.2L20,30.5c-0.2-0.3-0.5-0.7-0.7-1l-0.4-0.4
			c-0.1-0.1-0.2-0.3-0.2-0.2l0,0c0,0,0.1,0,0.1,0.1c0,0,0.2,0.1,0.3,0.1c0,0,0.6,0.1,0.9,0c0.4-0.1,1-0.6,1-0.8
			c0.2-0.3,0.2-0.5,0.2-0.6c0-0.3,0-0.2,0-0.3c0,0,0,0,0,0l0,0.1c0,0.1,0,0.1,0,0.2c0.1,0.4,0.2,0.8,0.3,1.1
			c0.3,0.8,0.5,1.6,0.9,2.4l2,4.8c1.3,3.3,2.5,6.7,3.2,10.2c0.8,3.5,0.7,7.1,1,10.4c0.3,3.4,0.9,6.7,2,9.8c0.5,1.5,1.2,3,2.1,4.3
			c0.4,0.7,0.9,1.3,1.4,1.8c0.2,0.3,0.6,0.6,0.8,0.9c0.2,0.2,0.5,0.4,0.7,0.6c2.2,1.4,5.2,0.8,8.2,0.1c1.5-0.3,3-0.7,4.8-0.9
			c0.4,0,0.9-0.1,1.4-0.1l0.4,0l0.3,0c0.3,0,0.5,0.1,0.8,0.1c1,0.2,1.9,0.5,2.7,0.9c1.6,0.8,2.9,1.7,4.1,2.6c1.2,1,2.4,2,3.4,3
			c2.1,2.1,4,4.2,5.6,6.4c0.4,0.5,0.8,1.1,1.2,1.7c0.2,0.3,0.4,0.5,0.5,0.7c0.2,0.2,0.3,0.4,0.5,0.6c0.7,0.8,1.4,1.5,2.3,2
			c1.6,1,3.5,1.5,5.4,1.4c1.8-0.1,3.6-0.6,5-1.4c1.5-0.8,2.9-1.8,4.1-2.7c2.4-1.8,4.3-3.3,5.5-4.4C92.6,83.5,93.1,83,93.4,82.8z"/>
	</g>
	<g>
		<path d="M260.4,77.6c0,0,0.1,0,0.2,0.1c0.2,0.1,0.4,0.2,0.6,0.4c0.2,0.2,0.5,0.5,0.8,0.8c0.3,0.3,0.5,0.7,0.8,1.1
			c0.2,0.4,0.5,0.9,0.6,1.5c0.1,0.6,0.1,1.2,0,1.8c0,0.6,0,1.3,0.1,1.9c0.2,0.6,0.4,1.2,0.7,1.8c0.3,0.6,0.6,1.2,0.8,1.9
			c0.2,0.6,0.3,1.3,0.4,1.9c0.1,0.6,0.1,1.2,0.1,1.8c0,0.6-0.1,1.1-0.3,1.6c-0.1,0.5-0.2,0.9-0.4,1.3c-0.2,0.4-0.3,0.7-0.5,1
			c-0.3,0.5-0.5,0.8-0.5,0.8l-0.3,0c0,0-0.2-0.3-0.4-0.9c-0.1-0.3-0.2-0.6-0.3-1c-0.1-0.4-0.2-0.8-0.3-1.3c-0.1-0.5-0.1-1-0.2-1.5
			c-0.1-0.5-0.1-1.1,0-1.6c0-0.6,0.1-1.2,0.1-1.8c0-0.6,0.2-1.2,0.3-1.9c0.1-0.6,0.1-1.3,0-1.9c-0.1-0.6-0.4-1.2-0.8-1.7
			c-0.4-0.5-0.8-1-1-1.4c-0.2-0.5-0.3-1-0.5-1.4c-0.2-0.9-0.3-1.7-0.3-2.3c0-0.3,0-0.5,0-0.7c0-0.2,0-0.3,0-0.3L260.4,77.6z"/>
	</g>
	<g>
		<path d="M264.4,86.8c0.3,0.3,0.8,0.7,1.6,1.3c1.3,1.1,3.1,2.6,5.6,4.4c1.2,0.9,2.6,1.9,4.1,2.7c0.4,0.2,0.8,0.4,1.2,0.5
			c0.2,0.1,0.4,0.2,0.6,0.2c0.2,0.1,0.5,0.1,0.7,0.2c0.8,0.2,1.7,0.4,2.7,0.4c1.9,0.1,3.7-0.4,5.4-1.5c0.8-0.6,1.6-1.3,2.2-2.1
			c0.3-0.4,0.6-0.9,1-1.4c0.4-0.6,0.8-1.1,1.2-1.7c1.7-2.2,3.6-4.3,5.7-6.4c1.1-1,2.2-2,3.5-3c1.3-0.9,2.6-1.8,4.3-2.5
			c0.9-0.3,1.8-0.6,2.9-0.7c0.3,0,1,0,1.4,0c0.5,0,0.9,0.1,1.3,0.1c1.7,0.3,3.2,0.7,4.7,1c3,0.6,6,1.1,8.1-0.6c2.2-2,3.8-4.9,4.8-8
			c1-3.2,1.5-6.6,1.8-10c0.2-1.7,0.1-3.4,0.3-5.3c0.2-1.8,0.6-3.6,1.1-5.3c1-3.4,2.4-6.8,3.7-10c0.7-1.6,1.3-3.3,1.9-4.9
			c0.3-0.8,0.5-1.6,0.6-2.3c0.1-0.3,0-0.6,0-0.6c0,0,0,0.1,0.1,0.3c0.1,0.1,0.2,0.1,0.2,0.2c0.1,0-0.1,0,0.2,0.1l-0.1,0
			c-0.1,0,0.1,0,0.1,0c0.1,0,0.2,0,0.2,0c0.4,0,0.4-0.1,0.4,0c0,0-0.1,0.1-0.2,0.2c-0.2,0.2-0.4,0.5-0.7,0.8c-0.5,0.6-0.9,1.3-1.3,2
			c-0.9,1.4-1.7,2.9-2.6,4.4c-1.7,3-3.4,6-5.6,9c-2.1,3.1-5.7,5.4-8.9,6.8c-3.3,1.5-6.6,2.4-10,2.9c-1.7,0.2-3.4,0.4-5.2,0.4
			c-0.9,0-1.8-0.1-2.7-0.3c-0.8-0.2-1.5-0.3-2.3-0.5c-2.8-0.6-5.4-0.9-7.9-0.6c-2.4,0.3-4.6,1.2-6.5,2.6c-1.9,1.4-3.4,3.1-4.6,5
			c-1.2,1.8-2.3,3.9-3.3,5.8c-2,3.8-3.7,7.1-5.1,9.9c-0.8,1.4-1.5,2.6-2.3,3.6c-0.8,1-1.7,1.7-2.4,2.2c-0.8,0.4-1.4,0.6-1.8,0.7
			C264.5,86.7,264.5,86.7,264.4,86.8z M263.8,86.4c0,0,0.2-0.1,0.6-0.3c0.4-0.2,0.9-0.5,1.5-1c0.6-0.5,1.2-1.2,1.8-2.2
			c0.6-1,1.1-2.2,1.6-3.6c1.1-2.9,2.3-6.4,4-10.4c0.4-1,0.9-2,1.3-3.1c0.4-1,1-2.2,1.6-3.3c1.3-2.2,2.9-4.5,5.2-6.5
			c2.3-1.9,5.3-3.4,8.5-4c3.2-0.6,6.6-0.3,9.7,0.3c0.8,0.1,1.5,0.3,2.2,0.4c0.3,0,0.6,0.1,0.9,0.1l1,0c1.3,0,2.8-0.1,4.2-0.3
			c2.9-0.4,5.9-1.3,8.7-2.4c0.7-0.3,1.4-0.6,2.1-0.9c0.6-0.3,1.3-0.7,1.9-1.1L321,48l0.5-0.4l0.5-0.4c0.1-0.1-0.1,0.1,0,0l0,0
			l0.1-0.1l0.2-0.2c0.5-0.5,1-1,1.5-1.7c2-2.5,3.8-5.4,5.7-8.3c0.9-1.5,1.9-2.9,2.9-4.4c0.5-0.7,1.1-1.5,1.7-2.2
			c0.3-0.4,0.7-0.8,1.1-1.1c0.2-0.2,0.5-0.4,0.9-0.6c0.4-0.2,0.9-0.4,1.7-0.4c0.1,0,0.3,0,0.4,0.1c0.1,0,0.3,0.1,0.3,0.1l0.1,0
			c0.3,0.1,0.2,0.1,0.3,0.2c0.3,0.1,0.5,0.4,0.7,0.6c0.4,0.5,0.6,1.1,0.7,1.5c0.1,0.9,0,1.4-0.1,2c-0.3,1.1-0.6,1.9-1,2.8
			c-0.8,1.7-1.6,3.2-2.4,4.8c-1.6,3.1-3.2,6.2-4.4,9.5c-0.6,1.6-1,3.3-1.3,4.9c-0.2,1.6-0.2,3.4-0.4,5.2c-0.3,3.5-0.7,7-1.6,10.3
			c-0.9,3.4-2.2,6.7-4.7,9.5c-1.4,1.5-3.4,2.2-5.3,2.4c-1.8,0.2-3.6,0.1-5.2-0.1c-1.6-0.2-3.2-0.4-4.6-0.5c-0.3,0-0.7,0-1,0
			c-0.4,0-0.5,0-0.9,0.1c-0.4,0-0.9,0.2-1.5,0.5c-1.1,0.5-2.3,1.3-3.3,2.1c-1.1,0.8-2.1,1.7-3.1,2.6c-2,1.8-3.8,3.8-5.4,5.8
			c-0.4,0.5-0.8,1-1.2,1.5c-0.4,0.5-0.8,1.1-1.3,1.6c-1,1.1-2.1,2-3.3,2.8c-2.4,1.5-5.3,1.9-7.7,1.6c-1.2-0.1-2.3-0.4-3.4-0.8
			c-0.2-0.1-0.5-0.2-0.7-0.3c-0.3-0.1-0.5-0.3-0.8-0.4c-0.5-0.2-0.9-0.5-1.4-0.8c-1.6-1.1-2.9-2.3-4.1-3.4c-2.3-2.2-3.8-4.1-4.9-5.3
			l-1.8-2.3L263.8,86.4z"/>
	</g>
	<g>
		<g>
			<path d="M263.1,87.4c4.4,4.7,10.4,11.6,17.3,11.9c4.7,0.2,8.3-1.7,11.2-5.4c3.8-4.9,7.8-9.8,13.4-12.8c4.5-2.5,10,1.2,14.8,0.3
				c4.5-0.9,6.8-4.4,8.5-8.4c2-4.7,2.5-10.1,2.9-15.1c0.5-6.6,2.8-12.2,5.5-18.2c1.2-2.6,3.1-5.7,3-8.7c0-1.5-1.6-2.7-2.9-1.9
				c-2.4,1.3-3.9,4.5-5.3,6.7c-2.6,4.2-5,8.9-8.6,12.4c-4.3,4.2-11.7,5.8-17.4,6.2c-3.6,0.3-7.2-1-10.8-1.3
				c-9.6-0.8-15.8,5.8-19.8,13.8c-2.1,4.2-3.9,8.6-5.9,12.9c-1.2,2.6-2.6,4.6-5.3,5.6c-1.4,0.5-0.8,2.7,0.6,2.2
				c5.9-2.1,7.5-8.5,9.8-13.7c2.7-6,5.3-12.6,11-16.4c3.7-2.5,8.3-2.5,12.5-1.8c8.5,1.4,16.1,0.5,23.8-3.7
				c7.4-4.1,10.2-13.4,15.1-19.7c1.7-2.2,0.7,0.6,0.3,1.6c-0.8,2.3-2,4.6-3,6.8c-2,4.4-3.9,8.9-4.6,13.7c-0.9,6.3-0.7,12.4-3.3,18.4
				c-1.4,3.4-3.8,6-7.6,6.3c-2.6,0.2-5.2-0.7-7.7-1c-9.5-1.2-16.3,8.6-21.5,15.3c-7.6,9.7-18.9-2-24.3-7.8
				C263.7,84.8,262.1,86.4,263.1,87.4z"/>
		</g>
	</g>
	<path class="st15" d="M96.4,43.1c0,0,28.9-34.9,83.3-34.9s84.9,33.6,84.9,33.6"/>
	<path class="st15" d="M75.7,105.7c0,0,16.2,70,106.4,70c91.2,0,101.1-65.4,101.1-65.4"/>
	<g>
		<path d="M110.1,76.8c1.7-1.7,3.7-3,5.8-4.2c1.1-0.6,2.1-1.1,3.3-1.6c1.1-0.5,2.3-0.9,3.4-1.2c2.3-0.7,4.7-1.2,7.2-1.4
			c0.6-0.1,1.2-0.1,1.8-0.1c0.6,0,1.2,0,1.8,0c1.2,0,2.4,0.1,3.7,0.2c1.2,0.2,2.4,0.3,3.6,0.6c1.2,0.2,2.4,0.6,3.5,0.9
			c0.6,0.2,1.1,0.4,1.7,0.6c0.6,0.2,1.1,0.4,1.7,0.7l1.6,0.8l1.6,0.8c1.1,0.5,2.1,1.2,3.1,1.8c1,0.6,2,1.3,3,2l2.9,2.1l2.8,2.2
			l-0.5-0.1c1.5-0.6,3-1,4.5-1.4c1.5-0.4,3-0.8,4.6-1.2c1.5-0.4,3.1-0.7,4.6-0.9c1.6-0.3,3.1-0.5,4.7-0.6c0.8-0.1,1.6-0.1,2.4-0.2
			c0.8,0,1.6-0.1,2.4,0c0.8,0,1.6,0.1,2.4,0.1c0.8,0.1,1.6,0.1,2.4,0.3c0.8,0.1,1.6,0.3,2.4,0.5c0.8,0.2,1.6,0.4,2.4,0.7
			c0.8,0.3,1.5,0.6,2.3,1c0.8,0.4,1.5,0.8,2.2,1.2l-1.7,0.2c0.9-1,1.8-1.7,2.8-2.5c1-0.8,2-1.5,3-2.2c1-0.7,2.1-1.3,3.2-1.9
			c1.1-0.6,2.2-1.1,3.3-1.6c0.6-0.3,1.1-0.5,1.7-0.7c0.6-0.2,1.2-0.4,1.8-0.6c0.6-0.2,1.2-0.4,1.8-0.5c0.6-0.2,1.2-0.3,1.8-0.4
			c1.2-0.3,2.4-0.4,3.7-0.6l1.8-0.2c0.6,0,1.2,0,1.8-0.1c0.6,0,1.2,0,1.8,0c0.6,0,1.2,0,1.8,0.1l1.8,0.2l1.8,0.3
			c1.2,0.2,2.4,0.5,3.6,0.8c1.2,0.3,2.4,0.6,3.5,1.1c0.6,0.2,1.1,0.4,1.7,0.6l1.7,0.7c1.1,0.5,2.2,1,3.3,1.6
			c1.1,0.6,2.1,1.2,3.1,1.8c1,0.6,2,1.3,3,2l-0.2,0.3c-1.1-0.5-2.2-1-3.2-1.5c-1.1-0.4-2.2-0.9-3.3-1.3c-1.1-0.4-2.2-0.9-3.3-1.2
			l-1.7-0.5c-0.6-0.2-1.1-0.3-1.7-0.4c-1.1-0.3-2.3-0.5-3.4-0.8c-1.1-0.2-2.3-0.4-3.4-0.5l-1.7-0.2l-1.7-0.1c-0.6,0-1.1,0-1.7,0
			c-0.6,0-1.1,0-1.7,0c-0.6,0-1.1,0.1-1.7,0.1l-1.7,0.2c-1.1,0.2-2.3,0.4-3.4,0.6c-0.6,0.1-1.1,0.3-1.7,0.4
			c-0.6,0.1-1.1,0.3-1.6,0.5c-0.5,0.2-1.1,0.3-1.6,0.5c-0.5,0.2-1.1,0.4-1.6,0.6c-1.1,0.4-2.1,0.9-3.1,1.4c-1,0.5-2,1.1-3,1.6
			c-1,0.6-1.9,1.2-2.9,1.9c-0.9,0.7-1.8,1.4-2.6,2.1l-0.8,0.8l-0.9-0.6c-0.6-0.4-1.2-0.8-1.8-1.2c-0.6-0.4-1.3-0.7-2-1
			c-0.7-0.3-1.4-0.5-2.1-0.8c-0.7-0.2-1.4-0.4-2.2-0.6c-2.9-0.7-6-0.9-9.1-0.8c-1.5,0-3.1,0.1-4.6,0.3c-1.5,0.2-3.1,0.4-4.6,0.7
			c-3,0.6-6.1,1.5-8.9,2.6l-0.2,0.1l-0.2-0.2l-2.8-2.1c-1-0.6-2-1.3-3-1.9c-1-0.6-2-1.2-3.1-1.7c-1-0.5-2.1-1-3.2-1.5l-1.6-0.7
			l-1.6-0.6c-1.1-0.4-2.2-0.7-3.3-1.1c-1.1-0.3-2.2-0.6-3.3-0.8c-1.1-0.3-2.2-0.4-3.4-0.6c-1.1-0.1-2.3-0.3-3.4-0.3
			c-0.6,0-1.1,0-1.7,0c-0.6,0-1.1,0-1.7,0c-1.1,0-2.3,0.1-3.4,0.3c-1.1,0.2-2.3,0.3-3.4,0.6c-1.1,0.3-2.2,0.6-3.3,0.9
			c-1.1,0.3-2.2,0.8-3.3,1.2c-1.1,0.4-2.1,0.9-3.2,1.5c-1,0.6-2.1,1.1-3,1.8L110.1,76.8z"/>
	</g>
	<g>
		<path d="M162.1,81.5c0,0-0.6-1-1.3-2.8c-0.4-0.9-0.9-2-1.3-3.3c-0.5-1.3-1-2.7-1.5-4.3c-0.5-1.6-1-3.3-1.4-5.2
			c-0.4-1.9-0.6-3.9-0.8-6c-0.2-2.1-0.5-4.2-1-6.3c-0.5-2.1-1.1-4.3-1.8-6.4c-0.7-2.1-1.4-4.2-1.9-6.4c-0.5-2.1-1-4.2-1.5-6.2
			c-1-4-1.8-7.6-2.7-10.8c-0.4-1.6-0.8-3-1.2-4.3c-0.4-1.3-0.6-2.4-0.9-3.4c-0.5-1.9-0.7-3-0.7-3l0.3-0.1c0,0,0.7,0.9,1.7,2.6
			c0.5,0.8,1.1,1.9,1.8,3.1c0.7,1.2,1.3,2.6,2,4.1c0.6,1.6,1.3,3.3,1.9,5.1c0.6,1.9,1.1,3.9,1.4,5.9c0.4,2.1,0.7,4.2,1,6.4
			c0.3,2.2,0.5,4.4,0.7,6.6c0.2,2.2,0.5,4.4,0.9,6.5c0.4,2.1,1.1,4.2,1.8,6.1c0.7,2,1.5,3.8,2,5.7c0.5,1.8,0.9,3.6,1.2,5.2
			c0.3,1.6,0.6,3.1,0.8,4.5c0.2,1.3,0.4,2.5,0.5,3.5c0.2,1.9,0.2,3.1,0.2,3.1L162.1,81.5z"/>
	</g>
	<g>
		<path d="M199.2,81.4c0,0,0-1.1,0.2-3.1c0.1-1,0.2-2.2,0.5-3.5c0.2-1.3,0.5-2.8,0.8-4.5c0.3-1.6,0.7-3.4,1.2-5.2
			c0.5-1.8,1.3-3.7,2-5.7c0.7-2,1.4-4,1.8-6.1c0.5-2.1,0.7-4.3,0.9-6.5c0.2-2.2,0.3-4.4,0.7-6.6c0.3-2.2,0.6-4.3,1-6.4
			c0.4-2.1,0.8-4.1,1.4-5.9c0.6-1.9,1.3-3.6,1.9-5.1c0.7-1.5,1.3-3,2-4.1c0.6-1.2,1.2-2.2,1.8-3.1c1-1.7,1.7-2.6,1.7-2.6l0.3,0.1
			c0,0-0.2,1.1-0.7,3c-0.3,0.9-0.5,2.1-0.9,3.4c-0.3,1.3-0.7,2.7-1.2,4.3c-0.8,3.2-1.6,6.8-2.7,10.8c-0.5,2-1,4.1-1.5,6.2
			c-0.5,2.1-1.2,4.2-1.9,6.4c-0.7,2.1-1.3,4.2-1.8,6.4c-0.5,2.1-0.8,4.3-1,6.3c-0.2,2.1-0.4,4.1-0.8,6c-0.4,1.9-0.9,3.6-1.4,5.2
			c-0.5,1.6-1,3-1.5,4.3c-0.5,1.3-0.9,2.4-1.3,3.3c-0.8,1.8-1.3,2.8-1.3,2.8L199.2,81.4z"/>
	</g>
	<g>
		<path d="M180.2,77.6c0,0-0.3-1.1-0.6-3c-0.3-1.9-0.7-4.6-0.9-7.8c-0.1-1.6-0.2-3.4-0.1-5.2c0.1-1.9,0.4-3.8,0.7-5.8
			c0.3-2,0.5-4.1,0.5-6.2c0-2.1-0.2-4.3-0.5-6.4c-0.3-2.2-0.6-4.3-0.7-6.4c-0.1-2.1-0.2-4.2-0.3-6.2c-0.1-2-0.1-4,0-5.8
			c0.1-1.9,0.2-3.6,0.3-5.2c0.2-1.6,0.3-3.1,0.5-4.4c0.2-1.3,0.3-2.5,0.5-3.4c0.3-1.9,0.6-3,0.6-3h0.4c0,0,0.3,1.1,0.6,3
			c0.2,0.9,0.3,2.1,0.5,3.4c0.2,1.3,0.3,2.8,0.5,4.4c0.1,1.6,0.3,3.4,0.3,5.2c0.1,1.9,0.1,3.8,0,5.8c-0.1,2-0.2,4.1-0.3,6.2
			c-0.1,2.1-0.4,4.3-0.7,6.4c-0.3,2.2-0.5,4.3-0.5,6.4c0,2.1,0.2,4.2,0.5,6.2c0.3,2,0.6,4,0.7,5.8c0.1,1.9,0,3.6-0.1,5.2
			c-0.2,3.2-0.5,5.9-0.9,7.8c-0.3,1.9-0.6,3-0.6,3H180.2z"/>
	</g>
	<g>
		<path d="M114.7,54.1c1.4-1.3,3-2.5,4.6-3.5c1.6-1,3.4-2,5.2-2.8c0.9-0.4,1.8-0.7,2.7-1.1c0.9-0.3,1.9-0.6,2.8-0.8
			c1-0.2,1.9-0.4,2.9-0.5c1-0.1,2-0.2,3-0.2c1,0,2,0,3,0.1c0.5,0,1,0.1,1.5,0.2c0.5,0.1,1,0.1,1.5,0.2l1.5,0.3l1.4,0.4
			c0.5,0.1,1,0.3,1.4,0.5c0.5,0.2,0.9,0.3,1.4,0.6c0.9,0.4,1.8,0.8,2.7,1.3c0.9,0.5,1.7,1,2.6,1.6c0.9,0.5,1.6,1.2,2.4,1.8
			c0.8,0.6,1.5,1.3,2.3,2l-1.8,0c0.5-0.4,0.9-0.8,1.4-1.1c0.5-0.3,1-0.7,1.5-1c1-0.6,2-1.2,3.1-1.7c1.1-0.5,2.2-0.9,3.4-1.2
			c0.6-0.2,1.2-0.3,1.8-0.4c0.6-0.1,1.2-0.2,1.8-0.2c0.6,0,1.2,0,1.9,0c0.6,0.1,1.2,0.1,1.9,0.3c0.6,0.1,1.2,0.3,1.8,0.5
			c0.6,0.2,1.2,0.5,1.7,0.7c0.5,0.3,1.1,0.6,1.6,1c0.5,0.4,1,0.7,1.5,1.1c0.5,0.4,0.9,0.8,1.3,1.3c0.4,0.4,0.8,0.9,1.2,1.4l-2.1-0.3
			c0.5-0.4,1-0.7,1.6-1c0.5-0.3,1.1-0.6,1.6-0.9c1.1-0.6,2.2-1.1,3.3-1.5c1.1-0.4,2.3-0.8,3.5-1.1c0.6-0.1,1.2-0.2,1.8-0.3
			c0.6-0.1,1.3-0.1,1.9-0.1c0.6,0,1.3,0,1.9,0.1c0.6,0.1,1.3,0.2,1.9,0.4c0.3,0.1,0.6,0.2,0.9,0.3l0.9,0.4c0.6,0.3,1.2,0.6,1.7,1
			c0.6,0.4,1,0.8,1.5,1.2c0.4,0.5,0.9,0.9,1.3,1.4c0.4,0.5,0.7,1,1.1,1.6c0.3,0.5,0.6,1.1,0.9,1.6l-2.2-0.3c0.7-0.8,1.4-1.4,2.2-2.1
			c0.7-0.6,1.5-1.3,2.3-1.8c1.6-1.1,3.3-2.2,5-3c3.5-1.7,7.5-2.8,11.4-2.7c2,0,3.9,0.3,5.8,0.8c1.9,0.5,3.7,1.3,5.4,2.3
			c0.8,0.5,1.6,1,2.4,1.6c0.8,0.6,1.5,1.2,2.3,1.8c1.5,1.2,2.8,2.6,4,4.1c-0.7-0.7-1.4-1.3-2.1-1.9c-0.7-0.6-1.5-1.2-2.2-1.7
			c-1.5-1.1-3.1-2.1-4.8-2.9c-3.3-1.6-7-2.5-10.7-2.3c-3.6,0.2-7.2,1.3-10.4,3c-1.6,0.9-3.1,1.9-4.6,3c-0.7,0.6-1.4,1.2-2.1,1.8
			c-0.7,0.6-1.3,1.3-1.9,1.9l-1.2,1.4l-1-1.6c-0.3-0.5-0.5-0.9-0.8-1.4c-0.3-0.4-0.6-0.9-0.9-1.3c-0.3-0.4-0.7-0.8-1.1-1.1
			c-0.4-0.3-0.8-0.7-1.2-0.9c-0.4-0.3-0.9-0.5-1.3-0.7l-0.7-0.3l-0.7-0.2c-0.5-0.1-1-0.2-1.5-0.3c-0.5-0.1-1-0.1-1.5-0.1
			c-0.5,0-1,0.1-1.6,0.1c-0.5,0.1-1,0.2-1.6,0.3c-1,0.2-2.1,0.6-3.1,1c-1,0.4-2,0.9-3,1.4c-0.5,0.3-1,0.5-1.4,0.8
			c-0.5,0.3-1,0.6-1.3,0.9l-1.1,0.8l-0.9-1.1c-0.3-0.4-0.7-0.8-1-1.2c-0.4-0.4-0.7-0.7-1.1-1.1c-0.4-0.3-0.8-0.6-1.2-0.9
			c-0.4-0.3-0.8-0.5-1.3-0.8c-0.4-0.2-0.9-0.4-1.4-0.6c-0.5-0.2-0.9-0.3-1.4-0.4c-0.5-0.1-1-0.2-1.5-0.2c-0.5,0-1-0.1-1.5,0
			c-0.5,0-1,0.1-1.5,0.1c-0.5,0.1-1,0.2-1.5,0.3c-1,0.2-2,0.6-3,1c-1,0.4-1.9,0.9-2.8,1.5c-0.5,0.3-0.9,0.6-1.3,0.9
			c-0.4,0.3-0.9,0.6-1.2,0.9l-0.9,0.7l-0.9-0.8c-0.7-0.6-1.4-1.3-2.1-1.9c-0.7-0.6-1.4-1.2-2.2-1.7c-0.8-0.5-1.5-1.1-2.3-1.5
			c-0.8-0.5-1.6-0.9-2.4-1.3c-0.4-0.2-0.8-0.4-1.3-0.6c-0.4-0.2-0.9-0.4-1.3-0.5l-1.3-0.5l-1.3-0.4c-0.4-0.1-0.9-0.2-1.4-0.3
			c-0.5-0.1-0.9-0.2-1.4-0.2c-0.9-0.1-1.9-0.2-2.8-0.2c-0.9,0-1.9,0-2.8,0.1c-0.5,0-0.9,0.1-1.4,0.1c-0.5,0-0.9,0.1-1.4,0.2
			c-0.9,0.1-1.9,0.4-2.8,0.6c-0.9,0.2-1.8,0.5-2.7,0.8c-1.8,0.6-3.6,1.4-5.2,2.3C117.9,52,116.3,53,114.7,54.1z"/>
	</g>
	<g>
		<path d="M110.1,39c1.1-1.6,2.4-3.1,3.7-4.6c1.3-1.5,2.8-2.8,4.3-4.1c0.8-0.6,1.6-1.2,2.4-1.8c0.8-0.6,1.7-1.1,2.5-1.6
			c0.9-0.5,1.8-1,2.7-1.4c0.9-0.4,1.9-0.8,2.8-1.1c1-0.3,2-0.6,3-0.8c0.5-0.1,1-0.2,1.5-0.3c0.5-0.1,1-0.1,1.5-0.2
			c1-0.1,2.1-0.1,3.1,0c1,0.1,2.1,0.2,3.1,0.5c1,0.2,2,0.6,3,0.9c0.9,0.4,1.9,0.8,2.8,1.3c0.9,0.5,1.7,1.1,2.6,1.6
			c0.8,0.6,1.6,1.2,2.4,1.9l-1.2,0c0.6-0.5,1.1-0.9,1.7-1.3c0.6-0.4,1.2-0.8,1.8-1.2c1.2-0.7,2.5-1.4,3.7-2c0.6-0.3,1.3-0.6,1.9-0.8
			c0.7-0.2,1.3-0.5,2-0.7c0.7-0.2,1.4-0.4,2.1-0.5c0.7-0.1,1.4-0.2,2.1-0.3c0.7-0.1,1.4-0.1,2.1-0.1c0.4,0,0.7,0,1.1,0.1
			c0.4,0,0.7,0.1,1.1,0.1c0.7,0.1,1.4,0.3,2.1,0.5c0.7,0.2,1.4,0.5,2,0.8c0.3,0.1,0.6,0.3,1,0.5c0.3,0.2,0.6,0.3,0.9,0.6
			c0.6,0.4,1.2,0.8,1.7,1.3c0.6,0.5,1,1,1.5,1.5c0.5,0.5,0.9,1.1,1.4,1.6l-1.3-0.2c0.6-0.5,1.2-1,1.8-1.5c0.6-0.5,1.2-0.9,1.9-1.3
			c1.3-0.9,2.6-1.6,4-2.3c0.7-0.4,1.4-0.7,2.1-1c0.7-0.3,1.5-0.6,2.2-0.8c0.7-0.2,1.5-0.4,2.3-0.6c0.8-0.2,1.6-0.3,2.4-0.4
			c0.4-0.1,0.8-0.1,1.2-0.1c0.4,0,0.8,0,1.2,0c0.8,0,1.6,0.1,2.5,0.2l1.2,0.3l1.2,0.4c0.8,0.3,1.6,0.6,2.3,1
			c0.7,0.4,1.4,0.9,2.1,1.4c0.6,0.6,1.3,1.1,1.8,1.7c0.6,0.6,1.1,1.2,1.5,1.9c0.5,0.6,0.9,1.3,1.3,2l-2.6-0.3c0.7-0.7,1.3-1.3,2-1.9
			c0.7-0.6,1.4-1.1,2.1-1.6c0.7-0.5,1.5-1,2.3-1.4c0.8-0.4,1.6-0.8,2.4-1.1c0.8-0.3,1.7-0.6,2.6-0.8c0.9-0.2,1.8-0.3,2.7-0.4
			c0.9-0.1,1.8-0.1,2.7,0l1.3,0.2l1.3,0.3c0.9,0.2,1.7,0.5,2.5,0.9c0.8,0.3,1.6,0.8,2.4,1.2c0.7,0.5,1.5,0.9,2.2,1.5
			c0.7,0.5,1.3,1.1,2,1.7c0.6,0.6,1.2,1.2,1.8,1.8c0.5,0.7,1.1,1.3,1.6,2c0.5,0.7,1,1.4,1.5,2.1l1.3,2.2l-0.2,0.2l-1.6-1.9
			c-0.6-0.6-1.1-1.2-1.7-1.8c-0.6-0.6-1.2-1.2-1.8-1.7c-0.6-0.5-1.2-1.1-1.9-1.6c-0.7-0.5-1.3-1-2-1.4c-0.7-0.5-1.4-0.8-2.1-1.2
			c-0.7-0.3-1.4-0.7-2.2-0.9c-0.7-0.3-1.5-0.4-2.3-0.6l-1.1-0.2l-1.2-0.1c-0.8,0-1.5,0-2.3,0.1c-0.8,0.1-1.5,0.3-2.3,0.5
			c-0.7,0.2-1.5,0.5-2.2,0.8c-0.7,0.3-1.4,0.7-2.1,1c-0.7,0.4-1.3,0.8-2,1.3c-0.6,0.5-1.3,0.9-1.9,1.5c-0.6,0.5-1.2,1.1-1.6,1.6
			l-1.4,1.5l-1.2-1.8c-0.4-0.6-0.7-1.2-1.1-1.8c-0.4-0.5-0.8-1.1-1.3-1.6c-0.4-0.5-1-0.9-1.4-1.4c-0.5-0.4-1-0.8-1.6-1.2
			c-0.6-0.4-1.2-0.6-1.8-0.9l-0.9-0.3l-1-0.2c-0.7-0.1-1.3-0.2-2-0.3c-0.3,0-0.7,0-1,0c-0.3,0-0.7,0-1,0c-0.7,0-1.4,0.2-2.1,0.3
			c-0.7,0.1-1.4,0.3-2.1,0.5c-0.7,0.2-1.4,0.4-2,0.7c-0.7,0.2-1.3,0.5-2,0.8c-1.3,0.6-2.6,1.3-3.9,2c-0.6,0.4-1.3,0.7-1.9,1.1
			c-0.6,0.4-1.2,0.8-1.8,1.2l-0.8,0.6l-0.5-0.7c-0.4-0.5-0.7-1.1-1.2-1.6c-0.4-0.5-0.8-1-1.3-1.5c-0.5-0.5-1-0.9-1.5-1.3
			c-0.2-0.2-0.5-0.4-0.8-0.6c-0.3-0.2-0.5-0.4-0.8-0.5c-0.6-0.3-1.2-0.6-1.8-0.8c-0.6-0.2-1.3-0.4-1.9-0.5c-0.3-0.1-0.7-0.1-1-0.2
			c-0.3,0-0.7-0.1-1-0.1c-0.7,0-1.3,0-2,0c-0.7,0.1-1.3,0.2-2,0.3c-0.7,0.2-1.3,0.3-2,0.5c-1.3,0.4-2.5,1-3.7,1.6
			c-1.2,0.6-2.3,1.4-3.4,2.2c-0.5,0.4-1.1,0.8-1.6,1.3c-0.5,0.4-1,0.9-1.5,1.3l-0.5,0.5l-0.7-0.5c-0.8-0.5-1.5-1.1-2.4-1.5
			c-0.8-0.5-1.6-0.9-2.5-1.3c-0.8-0.4-1.7-0.7-2.6-1c-0.9-0.2-1.8-0.5-2.7-0.7c-0.9-0.2-1.8-0.3-2.7-0.4c-0.9,0-1.8-0.1-2.7,0
			c-0.5,0-0.9,0.1-1.4,0.1c-0.5,0.1-0.9,0.1-1.4,0.2c-0.9,0.2-1.8,0.4-2.7,0.6c-0.9,0.3-1.8,0.6-2.6,0.9c-0.9,0.4-1.7,0.7-2.6,1.2
			c-0.9,0.4-1.7,0.9-2.5,1.4c-0.8,0.5-1.6,1-2.4,1.5c-0.8,0.5-1.6,1.1-2.3,1.7c-0.8,0.6-1.5,1.2-2.3,1.8c-1.5,1.2-2.9,2.6-4.3,3.9
			L110.1,39z"/>
	</g>
</g>

<g id="eyes">
	<g>
		<g>
			<ellipse cx="133.7" cy="128.6" rx="6.3" ry="8.9"/>
			<ellipse cx="229.7" cy="128.6" rx="6.3" ry="8.9"/>
		</g>
		<ellipse class="st16" cx="136.1" cy="124.9" rx="1.1" ry="1.7"/>
		<ellipse class="st16" cx="232.1" cy="124.9" rx="1.1" ry="1.7"/>
	</g>
</g>

</svg>
